<svg width="26" height="20" viewBox="0 0 26 20" fill="none" xmlns="http://www.w3.org/2000/svg">
<path d="M11.0563 15.86V9.1925H10.265C9.6983 9.49459 9.15062 9.83105 8.625 10.2V11.0687C9.09375 10.7475 9.83625 10.2938 10.1975 10.0975H10.2125V15.86H11.0563ZM12.5412 14.2288C12.6 15.0288 13.2838 15.9862 14.67 15.9862C16.2425 15.9862 17.17 14.6538 17.17 12.3975C17.17 9.98 16.1937 9.0625 14.7287 9.0625C13.5712 9.0625 12.4825 9.9025 12.4825 11.3238C12.4825 12.7738 13.5125 13.5363 14.5775 13.5363C15.51 13.5363 16.115 13.0662 16.3062 12.5487H16.34C16.335 14.1937 15.7637 15.2538 14.7087 15.2538C13.8787 15.2538 13.4488 14.6913 13.3963 14.2288H12.5412ZM16.2325 11.3325C16.2325 12.2025 15.5338 12.8075 14.7525 12.8075C14.0012 12.8075 13.3225 12.3287 13.3225 11.3075C13.3225 10.2787 14.05 9.795 14.7825 9.795C15.5737 9.795 16.2325 10.2925 16.2325 11.3325Z" fill="#1F3F7F"/>
<path d="M7.375 0C7.54076 0 7.69973 0.065848 7.81694 0.183058C7.93415 0.300269 8 0.45924 8 0.625V1.25H18V0.625C18 0.45924 18.0658 0.300269 18.1831 0.183058C18.3003 0.065848 18.4592 0 18.625 0C18.7908 0 18.9497 0.065848 19.0669 0.183058C19.1842 0.300269 19.25 0.45924 19.25 0.625V1.25H20.5C21.163 1.25 21.7989 1.51339 22.2678 1.98223C22.7366 2.45107 23 3.08696 23 3.75V17.5C23 18.163 22.7366 18.7989 22.2678 19.2678C21.7989 19.7366 21.163 20 20.5 20H5.5C4.83696 20 4.20107 19.7366 3.73223 19.2678C3.26339 18.7989 3 18.163 3 17.5V3.75C3 3.08696 3.26339 2.45107 3.73223 1.98223C4.20107 1.51339 4.83696 1.25 5.5 1.25H6.75V0.625C6.75 0.45924 6.81585 0.300269 6.93306 0.183058C7.05027 0.065848 7.20924 0 7.375 0V0ZM5.5 2.5C5.16848 2.5 4.85054 2.6317 4.61612 2.86612C4.3817 3.10054 4.25 3.41848 4.25 3.75V17.5C4.25 17.8315 4.3817 18.1495 4.61612 18.3839C4.85054 18.6183 5.16848 18.75 5.5 18.75H20.5C20.8315 18.75 21.1495 18.6183 21.3839 18.3839C21.6183 18.1495 21.75 17.8315 21.75 17.5V3.75C21.75 3.41848 21.6183 3.10054 21.3839 2.86612C21.1495 2.6317 20.8315 2.5 20.5 2.5H5.5Z" fill="#1F3F7F"/>
<path d="M6.125 5C6.125 4.83424 6.19085 4.67527 6.30806 4.55806C6.42527 4.44085 6.58424 4.375 6.75 4.375H19.25C19.4158 4.375 19.5747 4.44085 19.6919 4.55806C19.8092 4.67527 19.875 4.83424 19.875 5V6.25C19.875 6.41576 19.8092 6.57473 19.6919 6.69194C19.5747 6.80915 19.4158 6.875 19.25 6.875H6.75C6.58424 6.875 6.42527 6.80915 6.30806 6.69194C6.19085 6.57473 6.125 6.41576 6.125 6.25V5Z" fill="#1F3F7F"/>
</svg>
