<svg width="15" height="20" viewBox="0 0 15 20" fill="none" xmlns="http://www.w3.org/2000/svg">
<path d="M3.5998 5.79844C3.8385 5.79844 4.06742 5.70362 4.2362 5.53483C4.40498 5.36605 4.4998 5.13713 4.4998 4.89844C4.4998 4.65974 4.40498 4.43082 4.2362 4.26204C4.06742 4.09326 3.8385 3.99844 3.5998 3.99844C3.36111 3.99844 3.13219 4.09326 2.96341 4.26204C2.79463 4.43082 2.6998 4.65974 2.6998 4.89844C2.6998 5.13713 2.79463 5.36605 2.96341 5.53483C3.13219 5.70362 3.36111 5.79844 3.5998 5.79844ZM4.4998 8.49844C4.4998 8.73713 4.40498 8.96605 4.2362 9.13483C4.06742 9.30362 3.8385 9.39844 3.5998 9.39844C3.36111 9.39844 3.13219 9.30362 2.96341 9.13483C2.79463 8.96605 2.6998 8.73713 2.6998 8.49844C2.6998 8.25974 2.79463 8.03082 2.96341 7.86204C3.13219 7.69326 3.36111 7.59844 3.5998 7.59844C3.8385 7.59844 4.06742 7.69326 4.2362 7.86204C4.40498 8.03082 4.4998 8.25974 4.4998 8.49844ZM3.5998 12.9984C3.71799 12.9984 3.83503 12.9752 3.94422 12.9299C4.05341 12.8847 4.15263 12.8184 4.2362 12.7348C4.31977 12.6513 4.38607 12.552 4.4313 12.4429C4.47653 12.3337 4.4998 12.2166 4.4998 12.0984C4.4998 11.9802 4.47653 11.8632 4.4313 11.754C4.38607 11.6448 4.31977 11.5456 4.2362 11.462C4.15263 11.3785 4.05341 11.3122 3.94422 11.2669C3.83503 11.2217 3.71799 11.1984 3.5998 11.1984C3.36111 11.1984 3.13219 11.2933 2.96341 11.462C2.79463 11.6308 2.6998 11.8597 2.6998 12.0984C2.6998 12.3371 2.79463 12.5661 2.96341 12.7348C3.13219 12.9036 3.36111 12.9984 3.5998 12.9984ZM8.0998 4.89844C8.0998 5.13713 8.00498 5.36605 7.8362 5.53483C7.66742 5.70362 7.4385 5.79844 7.1998 5.79844C6.96111 5.79844 6.73219 5.70362 6.56341 5.53483C6.39463 5.36605 6.2998 5.13713 6.2998 4.89844C6.2998 4.65974 6.39463 4.43082 6.56341 4.26204C6.73219 4.09326 6.96111 3.99844 7.1998 3.99844C7.4385 3.99844 7.66742 4.09326 7.8362 4.26204C8.00498 4.43082 8.0998 4.65974 8.0998 4.89844ZM7.1998 9.39844C7.4385 9.39844 7.66742 9.30362 7.8362 9.13483C8.00498 8.96605 8.0998 8.73713 8.0998 8.49844C8.0998 8.25974 8.00498 8.03082 7.8362 7.86204C7.66742 7.69326 7.4385 7.59844 7.1998 7.59844C6.96111 7.59844 6.73219 7.69326 6.56341 7.86204C6.39463 8.03082 6.2998 8.25974 6.2998 8.49844C6.2998 8.73713 6.39463 8.96605 6.56341 9.13483C6.73219 9.30362 6.96111 9.39844 7.1998 9.39844ZM8.0998 12.0984C8.0998 12.3371 8.00498 12.5661 7.8362 12.7348C7.66742 12.9036 7.4385 12.9984 7.1998 12.9984C6.96111 12.9984 6.73219 12.9036 6.56341 12.7348C6.39463 12.5661 6.2998 12.3371 6.2998 12.0984C6.2998 11.8597 6.39463 11.6308 6.56341 11.462C6.73219 11.2933 6.96111 11.1984 7.1998 11.1984C7.4385 11.1984 7.66742 11.2933 7.8362 11.462C8.00498 11.6308 8.0998 11.8597 8.0998 12.0984ZM10.7998 12.9984C10.918 12.9984 11.035 12.9752 11.1442 12.9299C11.2534 12.8847 11.3526 12.8184 11.4362 12.7348C11.5198 12.6513 11.5861 12.552 11.6313 12.4429C11.6765 12.3337 11.6998 12.2166 11.6998 12.0984C11.6998 11.9802 11.6765 11.8632 11.6313 11.754C11.5861 11.6448 11.5198 11.5456 11.4362 11.462C11.3526 11.3785 11.2534 11.3122 11.1442 11.2669C11.035 11.2217 10.918 11.1984 10.7998 11.1984C10.5611 11.1984 10.3322 11.2933 10.1634 11.462C9.99463 11.6308 9.8998 11.8597 9.8998 12.0984C9.8998 12.3371 9.99463 12.5661 10.1634 12.7348C10.3322 12.9036 10.5611 12.9984 10.7998 12.9984ZM0.899805 19.5984C0.740675 19.5984 0.588063 19.5352 0.475541 19.4227C0.363019 19.3102 0.299805 19.1576 0.299805 18.9984V2.19844C0.299805 1.72105 0.489447 1.26321 0.827012 0.925645C1.16458 0.58808 1.62241 0.398438 2.0998 0.398438H9.2998C9.77719 0.398438 10.235 0.58808 10.5726 0.925645C10.9102 1.26321 11.0998 1.72105 11.0998 2.19844V7.59844H12.8998C13.3772 7.59844 13.835 7.78808 14.1726 8.12565C14.5102 8.46321 14.6998 8.92105 14.6998 9.39844V18.9984C14.6998 19.1576 14.6366 19.3102 14.5241 19.4227C14.4115 19.5352 14.2589 19.5984 14.0998 19.5984H0.899805ZM1.4998 2.19844V18.3984H3.8998V15.3984C3.8998 15.2393 3.96302 15.0867 4.07554 14.9742C4.18806 14.8617 4.34067 14.7984 4.4998 14.7984H10.4998C10.6589 14.7984 10.8115 14.8617 10.9241 14.9742C11.0366 15.0867 11.0998 15.2393 11.0998 15.3984V18.3984H13.4998V9.39844C13.4998 9.23931 13.4366 9.08669 13.3241 8.97417C13.2115 8.86165 13.0589 8.79844 12.8998 8.79844H10.4998C10.3407 8.79844 10.1881 8.73522 10.0755 8.6227C9.96302 8.51018 9.8998 8.35757 9.8998 8.19844V2.19844C9.8998 2.03931 9.83659 1.8867 9.72407 1.77417C9.61155 1.66165 9.45893 1.59844 9.2998 1.59844H2.0998C1.94067 1.59844 1.78806 1.66165 1.67554 1.77417C1.56302 1.8867 1.4998 2.03931 1.4998 2.19844ZM9.8998 15.9984H8.0998V18.3984H9.8998V15.9984ZM6.8998 15.9984H5.0998V18.3984H6.8998V15.9984Z" fill="#1F3F7F"/>
</svg>
