<svg width="14" height="13" viewBox="0 0 14 13" fill="none" xmlns="http://www.w3.org/2000/svg">
<path d="M2.86055 12.8H2.06055L2.54055 12.16C2.86055 11.72 3.06055 11.16 3.18055 10.48C1.18055 9.56 0.0605469 7.84 0.0605469 5.6C0.0605469 2.16 2.66055 0 6.86055 0C11.0605 0 13.6605 2.16 13.6605 5.6C13.6605 9.12 11.1005 11.2 6.86055 11.2H6.58055C5.94055 11.96 4.82055 12.8 2.86055 12.8ZM6.86055 0.8C3.10055 0.8 0.860547 2.6 0.860547 5.6C0.860547 8.16 2.42055 9.36 3.74055 9.88L4.02055 10L3.98055 10.32C3.90055 10.96 3.78055 11.52 3.54055 12C4.86055 11.84 5.62055 11.16 6.06055 10.6L6.18055 10.44H6.86055C12.2605 10.44 12.8605 7.08 12.8605 5.64C12.8605 2.6 10.6205 0.8 6.86055 0.8Z" fill="#1F3F7F"/>
<path d="M6.86055 0.8C3.10055 0.8 0.860547 2.6 0.860547 5.6C0.860547 8.16 2.42055 9.36 3.74055 9.88L4.02055 10L3.98055 10.32C3.90055 10.96 3.78055 11.52 3.54055 12C4.86055 11.84 5.62055 11.16 6.06055 10.6L6.18055 10.44H6.86055C12.2605 10.44 12.8605 7.08 12.8605 5.64C12.8605 2.6 10.6205 0.8 6.86055 0.8Z" fill="#1F3F7F"/>
</svg>
