<svg width="16" height="13" viewBox="0 0 16 13" fill="none" xmlns="http://www.w3.org/2000/svg">
<path d="M2.80039 0.5H13.2004C13.8369 0.5 14.4474 0.752856 14.8974 1.20294C15.3475 1.65303 15.6004 2.26348 15.6004 2.9V10.1C15.6004 10.7365 15.3475 11.347 14.8974 11.7971C14.4474 12.2471 13.8369 12.5 13.2004 12.5H2.80039C2.16387 12.5 1.55342 12.2471 1.10333 11.7971C0.653247 11.347 0.400391 10.7365 0.400391 10.1V2.9C0.400391 2.26348 0.653247 1.65303 1.10333 1.20294C1.55342 0.752856 2.16387 0.5 2.80039 0.5ZM2.80039 1.3C2.40039 1.3 2.04839 1.436 1.77639 1.676L8.00039 5.7L14.2244 1.676C13.9524 1.436 13.6004 1.3 13.2004 1.3H2.80039ZM8.00039 6.668L1.30439 2.324C1.24039 2.5 1.20039 2.7 1.20039 2.9V10.1C1.20039 10.5243 1.36896 10.9313 1.66902 11.2314C1.96908 11.5314 2.37604 11.7 2.80039 11.7H13.2004C13.6247 11.7 14.0317 11.5314 14.3318 11.2314C14.6318 10.9313 14.8004 10.5243 14.8004 10.1V2.9C14.8004 2.7 14.7604 2.5 14.6964 2.324L8.00039 6.668Z" fill="#1F3F7F"/>
</svg>
