<svg width="13" height="13" viewBox="0 0 13 13" fill="none" xmlns="http://www.w3.org/2000/svg">
<path d="M9 12.5007C4.0375 12.5007 0 8.46324 0 3.50074C0.00187647 2.64952 0.312796 1.82795 0.874952 1.18877C1.43711 0.549595 2.21225 0.136302 3.05625 0.0257374C3.2714 0.0018817 3.48856 0.0471804 3.67624 0.155064C3.86391 0.262948 4.01234 0.427809 4.1 0.625737L5.35625 3.55699C5.42141 3.70914 5.44754 3.87516 5.43226 4.03997C5.41698 4.20478 5.36078 4.36316 5.26875 4.50074L4.23125 6.08824C4.70105 7.04167 5.47516 7.81138 6.43125 8.27574L8 7.23199C8.13743 7.13935 8.29621 7.08327 8.46134 7.06905C8.62648 7.05484 8.79251 7.08295 8.94375 7.15074L11.875 8.40074C12.0729 8.4884 12.2378 8.63683 12.3457 8.8245C12.4536 9.01217 12.4989 9.22933 12.475 9.44449C12.3644 10.2885 11.9511 11.0636 11.312 11.6258C10.6728 12.1879 9.85121 12.4989 9 12.5007ZM3.18125 1.01949C2.57809 1.09702 2.02388 1.39175 1.62237 1.84847C1.22086 2.3052 0.999598 2.89262 1 3.50074C1.00166 5.62196 1.84504 7.65583 3.34497 9.15576C4.84491 10.6557 6.87878 11.4991 9 11.5007C9.60812 11.5011 10.1955 11.2799 10.6523 10.8784C11.109 10.4769 11.4037 9.92264 11.4812 9.31949L8.55 8.06949L6.9875 9.11324C6.84373 9.20828 6.67784 9.26456 6.50591 9.2766C6.33399 9.28865 6.16187 9.25606 6.00625 9.18199C4.84184 8.61873 3.89996 7.68125 3.33125 6.51949C3.25627 6.3644 3.22262 6.19257 3.23357 6.02065C3.24452 5.84873 3.2997 5.68256 3.39375 5.53824L4.4375 3.95074L3.18125 1.01949Z" fill="#1F3F7F"/>
</svg>
