<svg width="14" height="14" viewBox="0 0 14 14" fill="none" xmlns="http://www.w3.org/2000/svg">
<path d="M5.66667 2.50004V2.66671H8.33334V2.50004C8.33334 2.14642 8.19286 1.80728 7.94281 1.55723C7.69277 1.30718 7.35363 1.16671 7.00001 1.16671C6.64638 1.16671 6.30724 1.30718 6.0572 1.55723C5.80715 1.80728 5.66667 2.14642 5.66667 2.50004ZM4.83334 2.66671V2.50004C4.83334 1.9254 5.06161 1.3743 5.46794 0.967976C5.87427 0.561647 6.42537 0.333374 7.00001 0.333374C7.57464 0.333374 8.12574 0.561647 8.53207 0.967976C8.9384 1.3743 9.16667 1.9254 9.16667 2.50004V2.66671H12.9167C13.0272 2.66671 13.1332 2.71061 13.2113 2.78875C13.2894 2.86689 13.3333 2.97287 13.3333 3.08337C13.3333 3.19388 13.2894 3.29986 13.2113 3.378C13.1332 3.45614 13.0272 3.50004 12.9167 3.50004H11.9443L11.2777 11.452C11.227 12.0559 10.9513 12.6187 10.5053 13.0289C10.0592 13.4391 9.47533 13.6667 8.86934 13.6667H5.13067C4.52474 13.6667 3.94093 13.439 3.49494 13.0288C3.04895 12.6186 2.77332 12.0559 2.72267 11.452L2.05601 3.50004H1.08334C0.972832 3.50004 0.866851 3.45614 0.788711 3.378C0.71057 3.29986 0.666672 3.19388 0.666672 3.08337C0.666672 2.97287 0.71057 2.86689 0.788711 2.78875C0.866851 2.71061 0.972832 2.66671 1.08334 2.66671H4.83334ZM3.55301 11.3824C3.58619 11.778 3.76677 12.1467 4.05897 12.4154C4.35118 12.6842 4.73368 12.8333 5.13067 12.8334H8.86934C9.26639 12.8334 9.64897 12.6843 9.94125 12.4155C10.2335 12.1468 10.4142 11.778 10.4473 11.3824L11.108 3.50004H2.892L3.55301 11.3824ZM6.16667 5.75004C6.16667 5.69532 6.15589 5.64114 6.13496 5.59059C6.11402 5.54004 6.08332 5.4941 6.04463 5.45541C6.00594 5.41672 5.96001 5.38603 5.90946 5.36509C5.8589 5.34415 5.80472 5.33337 5.75001 5.33337C5.69529 5.33337 5.64111 5.34415 5.59055 5.36509C5.54 5.38603 5.49407 5.41672 5.45538 5.45541C5.41669 5.4941 5.38599 5.54004 5.36506 5.59059C5.34412 5.64114 5.33334 5.69532 5.33334 5.75004V10.5834C5.33334 10.6381 5.34412 10.6923 5.36506 10.7428C5.38599 10.7934 5.41669 10.8393 5.45538 10.878C5.49407 10.9167 5.54 10.9474 5.59055 10.9683C5.64111 10.9893 5.69529 11 5.75001 11C5.80472 11 5.8589 10.9893 5.90946 10.9683C5.96001 10.9474 6.00594 10.9167 6.04463 10.878C6.08332 10.8393 6.11402 10.7934 6.13496 10.7428C6.15589 10.6923 6.16667 10.6381 6.16667 10.5834V5.75004ZM8.25001 5.33337C8.48001 5.33337 8.66667 5.52004 8.66667 5.75004V10.5834C8.66667 10.6939 8.62277 10.7999 8.54463 10.878C8.46649 10.9561 8.36051 11 8.25001 11C8.1395 11 8.03352 10.9561 7.95538 10.878C7.87724 10.7999 7.83334 10.6939 7.83334 10.5834V5.75004C7.83334 5.52004 8.02001 5.33337 8.25001 5.33337Z" fill="black"/>
</svg>
