<svg width="108" height="102" viewBox="0 0 108 102" fill="none" xmlns="http://www.w3.org/2000/svg">
<g filter="url(#filter0_d_3102_977)">
<rect x="6.36719" y="5.91211" width="93.1334" height="87.0472" rx="5.47844" fill="white" shape-rendering="crispEdges"/>
<path d="M68.5672 24.6197C64.6857 20.8517 60.5016 17.8316 57.0652 17.4176C56.8715 17.3887 56.6758 17.3739 56.4799 17.3731H33.8788C33.6985 17.3716 33.5197 17.4063 33.353 17.4751C33.1864 17.5439 33.0352 17.6455 32.9084 17.7737C32.6531 18.0323 32.5092 18.3807 32.5078 18.7441V76.0536C32.5078 76.2336 32.5433 76.4117 32.6122 76.578C32.6811 76.7442 32.7822 76.8952 32.9095 77.0223C33.0368 77.1494 33.188 77.2502 33.3543 77.3188C33.5206 77.3875 33.6989 77.4227 33.8788 77.4224H74.75C74.9295 77.4228 75.1073 77.3876 75.273 77.3188C75.4388 77.2501 75.5894 77.1491 75.7159 77.0218C75.844 76.8951 75.9457 76.7444 76.0152 76.5782C76.0848 76.4121 76.1207 76.2338 76.1209 76.0536V37.9177C76.0408 33.4888 72.5733 28.6636 68.5672 24.6197ZM66.6376 26.5604C68.4292 28.3098 70.0428 30.2906 71.2446 32.2001C70.2154 31.8047 69.1593 31.4834 68.0843 31.2387C66.1596 30.8228 64.2056 30.5571 62.2398 30.4441C62.2487 30.1503 62.2509 29.8165 62.2509 29.4537C62.2509 27.5174 62.1285 24.7621 61.4586 22.3318L61.4363 22.265C63.3142 23.5128 65.0573 24.9523 66.6376 26.5604ZM73.3745 74.6782H35.2453V20.1039H56.4821V20.1106C57.408 20.055 58.207 20.9697 58.819 23.0618C59.3754 25.0537 59.5156 27.651 59.5134 29.4493C59.5179 30.7713 59.4533 31.6571 59.4533 31.6571L59.342 33.1082L60.802 33.1238C60.8087 33.1238 64.1761 33.1638 67.4789 33.9139C70.6526 34.5993 73.132 35.9659 73.3656 37.5127C73.3768 37.6507 73.379 37.7887 73.3768 37.9177V74.6715L73.3745 74.6782Z" fill="#393939"/>
<path d="M48.0584 36.795H17.2422V25.1533H48.0584V36.795Z" fill="#0099FF"/>
<g clip-path="url(#clip0_3102_977)" filter="url(#filter1_d_3102_977)">
<rect width="21.0682" height="21.0682" transform="translate(63.0234 63.0195) rotate(-23)" fill="white"/>
<path d="M66.5062 63.8885L84.5096 64.9049C84.6077 64.9104 84.7024 64.9433 84.7828 64.9999C84.8633 65.0565 84.9263 65.1344 84.9647 65.2249C85.0031 65.3155 85.0154 65.4149 85.0002 65.5121C84.9851 65.6092 84.943 65.7002 84.8788 65.7747L73.1027 79.4317C73.0367 79.5081 72.9501 79.5639 72.8533 79.5924C72.7564 79.621 72.6534 79.6211 72.5565 79.5928C72.4596 79.5645 72.3729 79.5089 72.3066 79.4327C72.2404 79.3565 72.1975 79.2628 72.183 79.1629L71.2932 72.9661C71.2789 72.8659 71.2937 72.7636 71.3361 72.6715C71.3784 72.5795 71.4464 72.5016 71.5318 72.4472L77.732 68.5027C77.769 68.4793 77.7995 68.447 77.8208 68.4087C77.8422 68.3705 77.8536 68.3276 77.8542 68.2838L77.847 68.2182C77.8331 68.1604 77.8002 68.109 77.7534 68.0724C77.7067 68.0357 77.649 68.0159 77.5896 68.0162L77.5287 68.0237L70.345 69.7536C70.2466 69.777 70.1435 69.7716 70.0481 69.7381C69.9527 69.7045 69.8689 69.6442 69.8069 69.5643L66.06 64.7382C65.998 64.6584 65.9602 64.5624 65.9512 64.4617C65.9422 64.361 65.9623 64.2598 66.0093 64.1703C66.0562 64.0807 66.1279 64.0066 66.2159 63.9567C66.3038 63.9068 66.4043 63.8832 66.5052 63.8889L66.5062 63.8885Z" fill="#0099FF"/>
</g>
<path d="M27.8916 28.1109V34.001H26.4757V28.1109H27.8916ZM33.8747 30.9386V31.1773C33.8747 31.6277 33.8113 32.0322 33.6846 32.3909C33.5605 32.7469 33.3839 33.0517 33.1546 33.3052C32.9254 33.556 32.6543 33.7488 32.3415 33.8837C32.0286 34.0158 31.6834 34.0819 31.3059 34.0819C30.9256 34.0819 30.5777 34.0158 30.2622 33.8837C29.9493 33.7488 29.6769 33.556 29.445 33.3052C29.2158 33.0517 29.0378 32.7469 28.911 32.3909C28.7869 32.0322 28.7249 31.6277 28.7249 31.1773V30.9386C28.7249 30.4882 28.7869 30.0837 28.911 29.725C29.0378 29.3663 29.2144 29.0616 29.4409 28.8107C29.6702 28.5572 29.9412 28.3644 30.2541 28.2323C30.5696 28.0974 30.9175 28.03 31.2978 28.03C31.6753 28.03 32.0206 28.0974 32.3334 28.2323C32.6489 28.3644 32.9213 28.5572 33.1506 28.8107C33.3798 29.0616 33.5578 29.3663 33.6846 29.725C33.8113 30.0837 33.8747 30.4882 33.8747 30.9386ZM32.4345 31.1773V30.9305C32.4345 30.6393 32.4089 30.3831 32.3577 30.1619C32.3091 29.9381 32.2363 29.7506 32.1392 29.5996C32.0421 29.4486 31.9221 29.3353 31.7792 29.2598C31.6389 29.1816 31.4785 29.1425 31.2978 29.1425C31.109 29.1425 30.9445 29.1816 30.8042 29.2598C30.664 29.3353 30.5467 29.4486 30.4523 29.5996C30.3579 29.7506 30.2864 29.9381 30.2379 30.1619C30.192 30.3831 30.1691 30.6393 30.1691 30.9305V31.1773C30.1691 31.4659 30.192 31.7221 30.2379 31.9459C30.2864 32.1671 30.3579 32.3545 30.4523 32.5082C30.5494 32.662 30.668 32.7779 30.8083 32.8561C30.9512 32.9343 31.1171 32.9734 31.3059 32.9734C31.4866 32.9734 31.647 32.9343 31.7873 32.8561C31.9275 32.7779 32.0448 32.662 32.1392 32.5082C32.2363 32.3545 32.3091 32.1671 32.3577 31.9459C32.4089 31.7221 32.4345 31.4659 32.4345 31.1773ZM37.645 32.4354C37.645 32.3437 37.6315 32.2615 37.6045 32.1886C37.5776 32.1131 37.5277 32.043 37.4549 31.9783C37.382 31.9136 37.2769 31.8488 37.1393 31.7841C37.0045 31.7167 36.8265 31.6466 36.6053 31.5737C36.3464 31.4874 36.097 31.3904 35.8569 31.2825C35.6169 31.1719 35.4025 31.0438 35.2137 30.8982C35.0249 30.7498 34.8753 30.5772 34.7647 30.3804C34.6541 30.1808 34.5988 29.9488 34.5988 29.6845C34.5988 29.431 34.6555 29.2031 34.7687 29.0009C34.882 28.7959 35.0398 28.622 35.242 28.479C35.447 28.3334 35.687 28.2228 35.9621 28.1473C36.2372 28.0691 36.5379 28.03 36.8642 28.03C37.2957 28.03 37.676 28.1055 38.005 28.2565C38.3368 28.4049 38.5957 28.6166 38.7817 28.8917C38.9705 29.164 39.0649 29.4863 39.0649 29.8585H37.6531C37.6531 29.7102 37.6221 29.5794 37.56 29.4661C37.5007 29.3528 37.4104 29.2638 37.289 29.1991C37.1676 29.1344 37.0153 29.102 36.8319 29.102C36.6539 29.102 36.5042 29.129 36.3828 29.1829C36.2615 29.2369 36.1698 29.3097 36.1077 29.4014C36.0457 29.4904 36.0147 29.5888 36.0147 29.6967C36.0147 29.7857 36.039 29.8666 36.0875 29.9394C36.1388 30.0095 36.2102 30.0756 36.3019 30.1376C36.3963 30.1997 36.5096 30.259 36.6417 30.3156C36.7766 30.3723 36.9276 30.4275 37.0948 30.4815C37.4077 30.5813 37.6854 30.6932 37.9282 30.8173C38.1736 30.9386 38.3799 31.0775 38.5471 31.2339C38.717 31.3877 38.8451 31.563 38.9314 31.7598C39.0204 31.9567 39.0649 32.1792 39.0649 32.4273C39.0649 32.6916 39.0137 32.9263 38.9112 33.1312C38.8087 33.3362 38.6617 33.5101 38.4703 33.6531C38.2788 33.7933 38.0495 33.8998 37.7825 33.9727C37.5155 34.0455 37.2175 34.0819 36.8885 34.0819C36.5865 34.0819 36.2884 34.0441 35.9945 33.9686C35.7032 33.8904 35.4389 33.7717 35.2016 33.6126C34.9643 33.4508 34.7741 33.2445 34.6312 32.9937C34.4909 32.7402 34.4208 32.4395 34.4208 32.0916H35.8448C35.8448 32.2642 35.8677 32.4098 35.9136 32.5285C35.9594 32.6471 36.0268 32.7429 36.1158 32.8157C36.2048 32.8858 36.3141 32.937 36.4435 32.9694C36.573 32.9991 36.7213 33.0139 36.8885 33.0139C37.0692 33.0139 37.2148 32.9883 37.3254 32.937C37.436 32.8831 37.5169 32.813 37.5681 32.7267C37.6194 32.6377 37.645 32.5406 37.645 32.4354Z" fill="white"/>
<path fill-rule="evenodd" clip-rule="evenodd" d="M54.813 38.4201C54.9307 38.3653 55.059 38.3369 55.1888 38.3369C55.3186 38.3369 55.4468 38.3653 55.5645 38.4201L66.2496 43.4065C66.4033 43.478 66.5333 43.5919 66.6245 43.7348C66.7157 43.8777 66.7642 44.0437 66.7643 44.2132V56.501C66.7642 56.6705 66.7157 56.8365 66.6245 56.9794C66.5333 57.1223 66.4033 57.2362 66.2496 57.3077L55.5645 62.2941C55.4468 62.3489 55.3186 62.3773 55.1888 62.3773C55.059 62.3773 54.9307 62.3489 54.813 62.2941L44.1279 57.3077C43.9743 57.2362 43.8442 57.1223 43.753 56.9794C43.6619 56.8365 43.6134 56.6705 43.6133 56.501V44.2132C43.6134 44.0437 43.6619 43.8777 43.753 43.7348C43.8442 43.5919 43.9743 43.478 44.1279 43.4065L54.813 38.4201ZM45.3941 45.5595L54.2984 49.342V60.0876L45.3941 55.9329V45.5595ZM56.0792 60.0894L64.9834 55.9347V45.5595L56.0792 49.342V60.0876V60.0894ZM55.1888 47.7873L63.687 44.1758L55.1888 40.2098L46.6906 44.1758L55.1888 47.7873Z" fill="#333333"/>
</g>
<defs>
<filter id="filter0_d_3102_977" x="0.203948" y="0.433674" width="106.829" height="100.743" filterUnits="userSpaceOnUse" color-interpolation-filters="sRGB">
<feFlood flood-opacity="0" result="BackgroundImageFix"/>
<feColorMatrix in="SourceAlpha" type="matrix" values="0 0 0 0 0 0 0 0 0 0 0 0 0 0 0 0 0 0 127 0" result="hardAlpha"/>
<feOffset dx="0.684804" dy="1.36961"/>
<feGaussianBlur stdDeviation="3.42402"/>
<feComposite in2="hardAlpha" operator="out"/>
<feColorMatrix type="matrix" values="0 0 0 0 0.47451 0 0 0 0 0.47451 0 0 0 0 0.47451 0 0 0 0.26 0"/>
<feBlend mode="normal" in2="BackgroundImageFix" result="effect1_dropShadow_3102_977"/>
<feBlend mode="normal" in="SourceGraphic" in2="effect1_dropShadow_3102_977" result="shape"/>
</filter>
<filter id="filter1_d_3102_977" x="58.8098" y="54.7871" width="36.0523" height="36.0532" filterUnits="userSpaceOnUse" color-interpolation-filters="sRGB">
<feFlood flood-opacity="0" result="BackgroundImageFix"/>
<feColorMatrix in="SourceAlpha" type="matrix" values="0 0 0 0 0 0 0 0 0 0 0 0 0 0 0 0 0 0 127 0" result="hardAlpha"/>
<feOffset dy="4.21363"/>
<feGaussianBlur stdDeviation="2.10682"/>
<feComposite in2="hardAlpha" operator="out"/>
<feColorMatrix type="matrix" values="0 0 0 0 0 0 0 0 0 0 0 0 0 0 0 0 0 0 0.25 0"/>
<feBlend mode="normal" in2="BackgroundImageFix" result="effect1_dropShadow_3102_977"/>
<feBlend mode="normal" in="SourceGraphic" in2="effect1_dropShadow_3102_977" result="shape"/>
</filter>
<clipPath id="clip0_3102_977">
<rect width="21.0682" height="21.0682" fill="white" transform="translate(63.0234 63.0195) rotate(-23)"/>
</clipPath>
</defs>
</svg>
