<svg width="108" height="102" viewBox="0 0 108 102" fill="none" xmlns="http://www.w3.org/2000/svg">
<g filter="url(#filter0_d_3102_1554)">
<rect x="6.67969" y="5.91211" width="93.1334" height="87.0472" rx="5.47844" fill="white" shape-rendering="crispEdges"/>
<path d="M73.871 36.8273H73.8502C73.5933 36.3786 73.2173 36.0098 72.7637 35.7617L54.3777 25.3778C53.9374 25.1307 53.441 25.001 52.9361 25.001C52.4312 25.001 51.9347 25.1307 51.4944 25.3778L33.1084 35.7199C32.6907 35.9569 32.3388 36.2945 32.0847 36.7019L32.022 36.7855H32.0011C31.7601 37.2282 31.631 37.7231 31.625 38.2271V58.8278C31.6243 59.346 31.7613 59.8551 32.022 60.3029C32.2826 60.7508 32.6575 61.1214 33.1084 61.3768L51.4944 71.7189C51.887 71.9352 52.3219 72.0635 52.7689 72.095H53.1241C53.564 72.0605 53.9914 71.9323 54.3777 71.7189L72.7637 61.3768C73.2146 61.1214 73.5895 60.7508 73.8502 60.3029C74.1108 59.8551 74.2478 59.346 74.2471 58.8278V38.2689C74.2543 37.7632 74.1243 37.265 73.871 36.8273ZM52.7271 27.5507L52.9361 27.5089L53.145 27.5507L70.4446 37.2869L63.1946 41.4029L45.4772 31.6249L52.7271 27.5507ZM53.1241 47.1276L35.4485 37.2869L42.9073 33.0874L60.6457 42.8654L53.1241 47.1276ZM34.3411 59.2457C34.2783 59.2048 34.2264 59.1492 34.1899 59.0836C34.1535 59.0181 34.1337 58.9446 34.1322 58.8696V39.418L51.8705 49.3005L51.7034 69.0028L34.3411 59.2457ZM71.531 59.2457L54.2105 68.9819L54.3777 49.3005L61.9201 45.0174V53.6881C61.9201 54.0206 62.0522 54.3394 62.2873 54.5745C62.5224 54.8096 62.8413 54.9417 63.1737 54.9417C63.5062 54.9417 63.8251 54.8096 64.0602 54.5745C64.2952 54.3394 64.4273 54.0206 64.4273 53.6881V43.5967L71.7399 39.4389V58.8696C71.7384 58.9446 71.7186 59.0181 71.6822 59.0836C71.6458 59.1492 71.5939 59.2048 71.531 59.2457Z" fill="#333333"/>
<path d="M73.6031 53.6878C73.6037 53.6875 73.6043 53.6871 73.6049 53.6868L73.8081 54.0268L74.2404 53.4309L74.2612 53.446L73.6031 53.6878ZM73.6031 53.6878C73.5273 53.7332 73.457 53.7769 73.3928 53.8182L73.6031 53.6878ZM73.4441 52.8368C73.8664 52.6027 74.3996 52.352 74.9984 52.1718C76.4583 51.7323 78.5863 51.6594 80.2403 53.5769L73.4441 52.8368ZM73.4441 52.8368C72.4079 52.1633 71.3015 51.8047 70.1528 51.8983C68.6651 52.0196 67.4536 52.871 66.5166 54.0086L66.5166 54.0087C65.4904 55.2547 65.4407 56.8476 65.5901 58.1013C65.7408 59.3656 66.1433 60.6579 66.4421 61.617C66.4476 61.6349 66.4532 61.6526 66.4587 61.6703L66.4589 61.6711C66.6103 62.1563 66.7279 62.5368 66.8025 62.8398L73.4441 52.8368ZM69.178 67.4749L69.1778 67.4747C67.7827 66.3004 67.2617 64.7086 66.8025 62.8402L69.178 67.4749ZM69.178 67.4749C69.6096 67.8381 70.1667 68.0168 70.754 67.926M69.178 67.4749L70.754 67.926M70.754 67.926C71.2572 67.8481 71.6357 67.5939 71.8647 67.4105M70.754 67.926L71.8647 67.4105M71.8647 67.4105C72.2795 67.0781 72.6613 66.5899 72.9163 66.2639M71.8647 67.4105L72.9163 66.2639M72.9163 66.2639C72.9323 66.2435 72.9477 66.2237 72.9626 66.2047L72.9163 66.2639ZM79.5948 63.9917L81.1921 59.4159L81.1997 59.3941L81.2066 59.372C81.4654 58.5501 81.6652 57.5981 81.5671 56.5858C81.4658 55.54 81.0554 54.5217 80.2405 53.5772L79.5948 63.9917ZM73.7816 54.1071L73.8205 54.0534L73.7816 54.1071ZM72.9627 66.2046C73.1143 66.0112 73.2408 65.8516 73.3523 65.72L72.9627 66.2046Z" fill="#1F3F7F" stroke="white" stroke-width="3"/>
</g>
<defs>
<filter id="filter0_d_3102_1554" x="0.516448" y="0.433674" width="106.829" height="100.743" filterUnits="userSpaceOnUse" color-interpolation-filters="sRGB">
<feFlood flood-opacity="0" result="BackgroundImageFix"/>
<feColorMatrix in="SourceAlpha" type="matrix" values="0 0 0 0 0 0 0 0 0 0 0 0 0 0 0 0 0 0 127 0" result="hardAlpha"/>
<feOffset dx="0.684804" dy="1.36961"/>
<feGaussianBlur stdDeviation="3.42402"/>
<feComposite in2="hardAlpha" operator="out"/>
<feColorMatrix type="matrix" values="0 0 0 0 0.47451 0 0 0 0 0.47451 0 0 0 0 0.47451 0 0 0 0.26 0"/>
<feBlend mode="normal" in2="BackgroundImageFix" result="effect1_dropShadow_3102_1554"/>
<feBlend mode="normal" in="SourceGraphic" in2="effect1_dropShadow_3102_1554" result="shape"/>
</filter>
</defs>
</svg>
