<svg width="11" height="11" viewBox="0 0 11 11" fill="none" xmlns="http://www.w3.org/2000/svg">
<path d="M0.998202 0.397082L10.5168 5.08725C10.5687 5.11283 10.6124 5.15243 10.643 5.20157C10.6735 5.2507 10.6897 5.30741 10.6897 5.36528C10.6897 5.42315 10.6735 5.47986 10.643 5.52899C10.6124 5.57813 10.5687 5.61773 10.5168 5.64331L0.997582 10.3335C0.944253 10.3597 0.884518 10.37 0.825491 10.3632C0.766464 10.3564 0.710633 10.3328 0.664648 10.2952C0.618662 10.2575 0.58446 10.2075 0.566114 10.151C0.547769 10.0945 0.546053 10.0339 0.561171 9.97642L1.50404 6.41508C1.51933 6.35746 1.55091 6.30546 1.595 6.26533C1.63909 6.2252 1.69381 6.19863 1.75262 6.18882L6.01816 5.47779C6.04358 5.47358 6.06755 5.4631 6.0879 5.4473C6.10824 5.4315 6.12433 5.41087 6.1347 5.38729L6.14586 5.35009C6.15165 5.31562 6.14561 5.2802 6.12873 5.24959C6.11185 5.21898 6.08512 5.19498 6.05288 5.18148L6.01816 5.17156L1.72907 4.45682C1.67037 4.44689 1.61578 4.42028 1.5718 4.38016C1.52783 4.34003 1.49634 4.28809 1.4811 4.23055L0.561171 0.754765C0.545896 0.697263 0.547493 0.636579 0.565772 0.57996C0.584051 0.52334 0.61824 0.473178 0.664256 0.435464C0.710272 0.397749 0.76617 0.374075 0.825276 0.367269C0.884382 0.360463 0.944198 0.370813 0.997582 0.397082H0.998202Z" fill="white"/>
</svg>
