<svg width="11" height="11" viewBox="0 0 11 11" fill="none" xmlns="http://www.w3.org/2000/svg">
<path d="M0.498202 0.0396601L10.0168 4.72983C10.0687 4.75541 10.1124 4.79501 10.143 4.84415C10.1735 4.89328 10.1897 4.94999 10.1897 5.00786C10.1897 5.06572 10.1735 5.12244 10.143 5.17157C10.1124 5.22071 10.0687 5.26031 10.0168 5.28588L0.497582 9.97606C0.444253 10.0023 0.384518 10.0126 0.325491 10.0058C0.266464 9.99899 0.210633 9.97537 0.164648 9.93775C0.118662 9.90013 0.0844598 9.85008 0.0661142 9.79356C0.0477686 9.73705 0.046053 9.67645 0.0611715 9.61899L1.00404 6.05766C1.01933 6.00003 1.05091 5.94804 1.095 5.90791C1.13909 5.86777 1.19381 5.84121 1.25262 5.8314L5.51816 5.12037C5.54358 5.11616 5.56755 5.10568 5.5879 5.08988C5.60824 5.07408 5.62433 5.05345 5.6347 5.02986L5.64586 4.99267C5.65165 4.9582 5.64561 4.92278 5.62873 4.89217C5.61185 4.86156 5.58512 4.83756 5.55288 4.82406L5.51816 4.81414L1.22907 4.09939C1.17037 4.08947 1.11578 4.06286 1.0718 4.02273C1.02783 3.98261 0.996345 3.93067 0.981105 3.87313L0.0611715 0.397343C0.0458957 0.339841 0.0474927 0.279157 0.0657718 0.222538C0.0840509 0.165918 0.11824 0.115757 0.164256 0.0780418C0.210272 0.0403271 0.26617 0.0166532 0.325276 0.00984729C0.384382 0.00304135 0.444198 0.013391 0.497582 0.0396601H0.498202Z" fill="#1F3F7F"/>
</svg>
