<svg width="617" height="434" viewBox="0 0 617 434" fill="none" xmlns="http://www.w3.org/2000/svg">
<path d="M167.199 159.933C161.555 125.412 131.325 114.134 139.644 91.9897C154.764 51.7398 268.735 51.4587 287.339 51.4125C347.69 51.2634 445.599 51.0215 485.734 110.863C504.229 138.439 477.226 154.822 489.041 225.045C496.054 266.733 506.149 271.767 501.165 290.158C486.116 345.679 375.804 367.289 360.083 370.369C242.397 393.423 93.6074 361.282 82.3293 309.031C72.2424 262.299 178.396 228.411 167.199 159.933Z" fill="#DEEBFF"/>
<path d="M113.191 264.681C106.646 252.482 73.2793 190.286 104.373 152.386C122.405 130.407 145.133 137.298 189.242 112.752C249.292 79.3369 240.932 47.7778 284.032 28.7668C341.434 3.44653 437.752 23.4824 465.895 68.4005C493.106 111.832 437.302 147.757 463.69 211.836C483.546 260.052 525.02 263.7 524.312 294.878C523.291 339.839 435.844 385.015 356.778 391.132C249.075 399.462 151.318 335.75 113.191 264.681Z" fill="#C9DEFB"/>
<path d="M114.032 38.281C118.516 36.7625 123.276 36.0274 128.013 36.1684C129.96 36.2263 132.147 36.3782 133.929 36.9903C135.576 37.5563 136.919 38.376 137.477 39.7828C138.039 41.1992 137.693 43.0311 137.129 44.683C136.462 46.6337 135.579 48.5013 134.966 50.4715C133.636 54.7432 133.124 59.208 133.51 63.6714C133.946 68.6995 135.53 73.5132 138.052 77.8722C138.655 78.9147 140.283 78.992 141.171 78.3338C142.229 77.5503 142.238 76.261 141.633 75.2149C137.38 67.8658 136.635 58.434 139.67 50.4647C141.189 46.475 143.474 41.9108 141.411 37.6775C139.277 33.2959 134.185 32.087 129.723 31.8162C123.845 31.4591 118.002 32.2344 112.422 34.1246C111.281 34.5111 110.727 35.9189 111.148 37.008C111.6 38.173 112.887 38.6685 114.032 38.281Z" fill="#4260A1"/>
<path d="M143.022 69.5049C142.047 68.4429 140.52 68.0867 139.175 68.6075L134.154 70.5514C132.752 71.0944 131.851 72.4719 131.917 73.9746L132.549 88.3617L185.345 224.727C186.273 227.125 191.596 227.282 197.261 225.088C202.95 222.885 206.779 219.186 205.851 216.788L153.055 80.4227L143.022 69.5049Z" fill="#7197E6"/>
<path d="M143.02 69.5049C142.044 68.4429 140.518 68.0867 139.173 68.6075L134.152 70.5514C134.05 70.5912 133.956 70.6441 133.859 70.692C135.12 70.3394 136.484 70.7092 137.382 71.6875L147.415 82.6049L200.211 218.97C200.979 220.954 198.484 223.828 194.379 226.009C195.315 225.77 196.28 225.466 197.258 225.088C202.947 222.885 206.776 219.186 205.848 216.788L153.052 80.4227L143.02 69.5049Z" fill="#5C83D6"/>
<path d="M159.161 90.0311L200.386 196.512C200.677 197.262 200.119 198.245 199.031 199.182C198.154 199.929 196.948 200.636 195.563 201.172L182.428 206.257C181.018 206.803 179.676 207.083 178.528 207.132C177.093 207.172 176.019 206.821 175.724 206.06L134.499 99.5796C134.208 98.8291 134.762 97.8359 135.854 96.9091C136.731 96.1623 137.912 95.4652 139.322 94.9191L152.457 89.8336C153.842 89.2974 155.209 89.0076 156.364 88.9801C157.796 88.9299 158.87 89.2807 159.161 90.0311Z" fill="#1F3F7F"/>
<path d="M156.364 88.9801C155.209 89.0081 153.842 89.2974 152.457 89.834L150.402 90.6292L189.618 191.918C189.909 192.669 189.35 193.652 188.262 194.589C187.385 195.335 186.18 196.042 184.794 196.578L173.714 200.868L175.724 206.059C176.019 206.82 177.093 207.171 178.528 207.131C179.676 207.082 181.018 206.802 182.428 206.256L195.563 201.171C196.948 200.635 198.154 199.928 199.031 199.181C200.119 198.245 200.677 197.262 200.386 196.511L159.161 90.0302C158.87 89.2807 157.795 88.9299 156.364 88.9801Z" fill="#2E4C8C"/>
<path d="M197.377 188.764L172.715 198.312L174.018 201.679L198.681 192.131L197.377 188.764Z" fill="#FFC86B"/>
<path d="M194.342 180.926L169.68 190.474L170.987 193.851L195.65 184.303L194.342 180.926Z" fill="#FFC86B"/>
<path d="M163.045 100.082L138.383 109.63L139.69 113.007L164.353 103.46L163.045 100.082Z" fill="#FFC86B"/>
<path d="M464.703 273.501C465.263 272.783 465.788 272.069 466.288 271.344C466.986 270.386 467.638 269.423 468.27 268.463C468.764 267.704 469.242 266.942 469.695 266.191C473.55 259.845 476.19 253.645 478.144 247.557C484.524 227.709 482.592 208.435 494.733 190.812C500.746 182.084 513.152 167.225 513.152 167.225L490.292 149.373C490.292 149.373 478.402 165.821 471.114 173.931C457.221 189.391 438.329 192.12 420.965 202.906C415.532 206.277 410.156 210.342 404.934 215.62C404.316 216.242 403.692 216.89 403.075 217.553C402.297 218.399 401.521 219.265 400.761 220.175C400.179 220.835 399.612 221.518 399.052 222.235C398.979 222.307 398.916 222.388 398.853 222.468C398.181 223.307 397.529 224.141 396.903 224.986C396.374 225.708 395.844 226.429 395.344 227.153C391.295 232.979 388.282 238.888 386.061 244.529C378.922 262.704 380.459 265.696 384.611 268.938C388.578 272.037 390.183 269.636 398.035 253.879C400.794 248.339 404.005 242.476 407.826 236.9C408.33 236.169 408.835 235.438 409.364 234.717C410.037 233.769 410.746 232.84 411.461 231.925C411.751 231.553 412.035 231.189 412.336 230.826C412.602 230.506 412.873 230.18 413.149 229.849C413.885 228.991 414.662 228.124 415.505 227.259C416.113 226.629 416.747 225.989 417.405 225.359C421.875 221.065 427.428 216.752 433.405 212.621C446.777 203.38 462.321 195.024 472.94 189.669C476.147 188.052 479.18 190.421 478.389 193.924C475.767 205.525 471.427 222.631 465.704 237.843C463.144 244.643 460.305 251.076 457.224 256.453C456.772 257.245 456.304 258.015 455.841 258.758C455.206 259.784 454.553 260.748 453.899 261.671C453.644 262.019 453.394 262.361 453.148 262.697C452.869 263.076 452.584 263.441 452.294 263.812C451.58 264.727 450.85 265.64 450.094 266.523C449.523 267.211 448.936 267.878 448.349 268.544C443.865 273.603 438.955 278.14 434.248 282.159C420.865 293.596 419.426 296.679 423.392 299.776C427.545 303.019 430.32 302.841 446.222 291.509C451.157 287.987 456.159 283.632 460.83 278.291C461.411 277.631 461.983 276.942 462.554 276.253C463.222 275.441 463.874 274.606 464.525 273.751C464.588 273.67 464.651 273.589 464.703 273.501Z" fill="#1F3F7F"/>
<path d="M486.246 151.858C480.731 148.613 467.028 140.217 459.455 132.645C457.786 130.977 454.948 132.386 455.323 134.716C456.579 142.538 461.267 154.797 477.385 164.191C478.443 164.808 479.795 164.567 480.549 163.601L486.922 155.441C487.824 154.286 487.509 152.601 486.246 151.858ZM493.247 150.555C492.277 150.093 491.718 149.055 491.894 147.995C492.394 144.974 492.002 138.218 481.874 130.309C476.231 125.902 469.175 122.182 463.78 119.656C461.496 118.586 462.166 115.155 464.685 115.036C472.779 114.656 484.712 115.475 494.162 121.865C511.381 133.51 512.356 148.987 511.83 155.755C511.698 157.451 509.902 158.479 508.365 157.748L493.247 150.555Z" fill="#1F3F7F"/>
<path d="M497.562 185.767C510.143 185.767 520.342 175.567 520.342 162.986C520.342 150.405 510.143 140.206 497.562 140.206C484.98 140.206 474.781 150.405 474.781 162.986C474.781 175.567 484.98 185.767 497.562 185.767Z" fill="#1F3F7F"/>
<path d="M487.449 155.09C491.81 149.505 499.872 148.513 505.457 152.875C511.042 157.236 512.034 165.298 507.673 170.883C503.311 176.468 495.249 177.459 489.664 173.099C484.08 168.737 483.088 160.674 487.449 155.09Z" fill="white"/>
<path d="M489.354 156.575C492.894 152.042 499.439 151.237 503.972 154.777C508.506 158.317 509.311 164.862 505.771 169.395C502.23 173.929 495.685 174.734 491.152 171.194C486.618 167.654 485.813 161.109 489.354 156.575ZM407.827 236.899C404.006 242.476 400.795 248.339 398.036 253.879C393.038 253.51 388.954 250.648 386.062 244.528C388.284 238.887 391.297 232.978 395.346 227.152C395.845 226.428 396.375 225.707 396.905 224.985C397.531 224.141 398.183 223.306 398.855 222.467C398.917 222.386 398.98 222.306 399.053 222.234C399.613 221.517 400.18 220.834 400.762 220.174C401.522 219.264 402.299 218.398 403.076 217.552C403.694 216.89 404.317 216.241 404.936 215.62C410.158 210.341 415.533 206.277 420.967 202.906C426.914 204.493 430.861 207.915 433.406 212.62C427.429 216.752 421.876 221.065 417.406 225.358C416.748 225.988 416.114 226.628 415.506 227.258C414.664 228.123 413.887 228.99 413.15 229.848C412.874 230.179 412.603 230.505 412.337 230.825C412.037 231.188 411.752 231.553 411.462 231.924C410.747 232.839 410.038 233.768 409.365 234.716C408.836 235.437 408.331 236.168 407.827 236.899Z" fill="#FFC86B"/>
<path d="M417.405 225.355C416.746 225.985 416.112 226.626 415.504 227.255L403.074 217.549C403.692 216.887 404.315 216.239 404.934 215.617L417.405 225.355ZM413.148 229.845C412.872 230.177 412.601 230.503 412.335 230.823C412.035 231.185 411.75 231.551 411.46 231.921L399.051 222.231C399.611 221.514 400.178 220.832 400.76 220.171L413.148 229.845ZM407.825 236.896L395.344 227.15C395.843 226.425 396.373 225.704 396.903 224.983L409.363 234.713C408.833 235.434 408.329 236.165 407.825 236.896Z" fill="white"/>
<path d="M448.35 268.545C443.866 273.604 438.956 278.141 434.25 282.16C435.819 286.919 439.585 290.188 446.223 291.51C451.158 287.988 456.16 283.633 460.831 278.292C461.413 277.632 461.984 276.943 462.555 276.254C463.223 275.442 463.875 274.607 464.526 273.752C464.589 273.671 464.652 273.591 464.704 273.503C465.264 272.785 465.789 272.071 466.289 271.346C466.987 270.388 467.639 269.425 468.272 268.465C468.765 267.706 469.243 266.944 469.696 266.193C473.551 259.847 476.191 253.647 478.145 247.559C475.163 242.174 470.886 239.173 465.705 237.844C463.146 244.645 460.307 251.078 457.225 256.455C456.773 257.247 456.305 258.016 455.842 258.759C455.207 259.786 454.554 260.749 453.9 261.672C453.645 262.02 453.395 262.363 453.149 262.698C452.869 263.077 452.585 263.442 452.295 263.813C451.58 264.728 450.85 265.641 450.095 266.524C449.524 267.212 448.937 267.879 448.35 268.545Z" fill="#FFC86B"/>
<path d="M457.225 256.452C456.774 257.244 456.306 258.014 455.842 258.756L468.272 268.463C468.765 267.703 469.243 266.941 469.696 266.19L457.225 256.452ZM453.901 261.67C453.645 262.018 453.395 262.36 453.149 262.696C452.87 263.075 452.585 263.44 452.295 263.811L464.704 273.501C465.264 272.784 465.789 272.069 466.289 271.344L453.901 261.67ZM448.35 268.543L460.831 278.29C461.413 277.63 461.984 276.941 462.555 276.252L450.095 266.522C449.524 267.21 448.937 267.877 448.35 268.543ZM116.12 161.824L79.1828 195.054C77.1742 196.861 77.0105 199.954 78.818 201.963L172.781 306.41C176.795 310.871 183.666 311.234 188.128 307.22L216.183 281.981C220.644 277.967 221.007 271.096 216.993 266.634L123.03 162.189C121.223 160.18 118.129 160.017 116.12 161.824ZM106.095 189.674C104.326 190.667 102.071 190.547 100.417 189.373C97.1368 187.044 97.3873 182.191 100.898 180.202C102.667 179.199 104.93 179.319 106.584 180.502C109.866 182.849 109.603 187.703 106.095 189.674Z" fill="white"/>
<path d="M107.047 219.395C102.228 219.141 98.527 215.027 98.782 210.208C99.0365 205.388 103.15 201.688 107.97 201.942C112.789 202.197 116.49 206.31 116.235 211.13C115.98 215.95 111.867 219.65 107.047 219.395Z" fill="#E6E7E8"/>
<path d="M107.133 217.79C103.201 217.582 100.181 214.226 100.389 210.294C100.597 206.362 103.953 203.343 107.885 203.55C111.817 203.758 114.836 207.114 114.629 211.046C114.421 214.978 111.065 217.997 107.133 217.79Z" fill="#DE0000"/>
<path d="M107.883 203.549C107.609 203.534 107.339 203.539 107.071 203.555C110.6 204.145 113.2 207.301 113.007 210.959C112.814 214.617 109.896 217.48 106.324 217.696C106.589 217.74 106.857 217.773 107.132 217.787C111.064 217.995 114.42 214.976 114.628 211.044C114.835 207.112 111.816 203.757 107.883 203.549Z" fill="#E6E7E8"/>
<path d="M104.023 209.945C103.637 211.806 102.749 213.195 102.038 213.048C101.328 212.9 101.066 211.272 101.451 209.412C101.837 207.55 102.726 206.161 103.436 206.309C104.146 206.456 104.409 208.083 104.023 209.945Z" fill="#FF9CA8"/>
<path d="M135.616 197.137C139.204 193.909 139.496 188.384 136.268 184.796C133.04 181.208 127.514 180.916 123.926 184.144C120.338 187.372 120.046 192.897 123.274 196.485C126.502 200.073 132.028 200.365 135.616 197.137Z" fill="#E6E7E8"/>
<path d="M129.398 197.758C125.467 197.55 122.447 194.194 122.655 190.262C122.863 186.33 126.218 183.311 130.151 183.518C134.083 183.726 137.102 187.082 136.894 191.014C136.687 194.947 133.331 197.966 129.398 197.758Z" fill="#DE0000"/>
<path d="M130.149 183.517C129.875 183.502 129.604 183.507 129.337 183.523C132.866 184.114 135.466 187.27 135.273 190.927C135.079 194.585 132.161 197.449 128.59 197.664C128.854 197.708 129.123 197.741 129.397 197.756C133.329 197.964 136.685 194.945 136.893 191.012C137.1 187.081 134.081 183.725 130.149 183.517Z" fill="#E6E7E8"/>
<path d="M126.292 189.909C125.906 191.77 125.018 193.16 124.308 193.012C123.598 192.865 123.335 191.237 123.721 189.376C124.107 187.515 124.995 186.125 125.706 186.273C126.415 186.42 126.678 188.048 126.292 189.909Z" fill="#FF9CA8"/>
<path d="M121.938 235.949C117.118 235.694 113.418 231.581 113.673 226.761C113.927 221.941 118.041 218.241 122.86 218.496C127.68 218.75 131.38 222.864 131.126 227.683C130.871 232.503 126.757 236.204 121.938 235.949Z" fill="#E6E7E8"/>
<path d="M122.023 234.343C118.091 234.135 115.072 230.779 115.28 226.847C115.488 222.915 118.843 219.896 122.776 220.103C126.708 220.311 129.727 223.667 129.519 227.599C129.312 231.532 125.956 234.551 122.023 234.343Z" fill="#DE0000"/>
<path d="M122.778 220.102C122.504 220.087 122.233 220.092 121.966 220.108C125.495 220.699 128.095 223.854 127.902 227.512C127.709 231.17 124.79 234.034 121.219 234.249C121.483 234.293 121.752 234.326 122.026 234.341C125.958 234.549 129.314 231.529 129.522 227.597C129.73 223.665 126.71 220.31 122.778 220.102Z" fill="#E6E7E8"/>
<path d="M118.918 226.498C118.532 228.359 117.643 229.748 116.933 229.601C116.223 229.454 115.96 227.826 116.346 225.965C116.732 224.104 117.62 222.714 118.33 222.862C119.041 223.009 119.303 224.637 118.918 226.498Z" fill="#FF9CA8"/>
<path d="M144.204 215.919C139.384 215.664 135.683 211.551 135.938 206.731C136.193 201.912 140.306 198.211 145.126 198.466C149.946 198.72 153.646 202.834 153.391 207.653C153.136 212.473 149.023 216.174 144.204 215.919Z" fill="#E6E7E8"/>
<path d="M144.289 214.311C140.357 214.103 137.338 210.748 137.545 206.815C137.753 202.883 141.109 199.864 145.041 200.072C148.973 200.279 151.992 203.635 151.785 207.568C151.577 211.5 148.221 214.519 144.289 214.311Z" fill="#DE0000"/>
<path d="M145.04 200.074C144.765 200.06 144.495 200.065 144.227 200.081C147.756 200.671 150.357 203.827 150.164 207.484C149.97 211.142 147.051 214.007 143.48 214.221C143.745 214.266 144.013 214.299 144.288 214.314C148.22 214.521 151.576 211.502 151.784 207.57C151.991 203.638 148.972 200.282 145.04 200.074Z" fill="#E6E7E8"/>
<path d="M141.183 206.467C140.797 208.328 139.909 209.717 139.198 209.57C138.488 209.422 138.226 207.794 138.612 205.933C138.998 204.072 139.886 202.683 140.596 202.83C141.306 202.977 141.569 204.605 141.183 206.467Z" fill="#FF9CA8"/>
<path d="M136.833 252.504C132.013 252.249 128.312 248.136 128.567 243.316C128.822 238.496 132.935 234.796 137.755 235.051C142.574 235.305 146.275 239.419 146.02 244.238C145.765 249.058 141.652 252.759 136.833 252.504Z" fill="#E6E7E8"/>
<path d="M136.918 250.896C132.986 250.688 129.967 247.333 130.174 243.4C130.382 239.468 133.738 236.449 137.67 236.657C141.602 236.864 144.621 240.22 144.414 244.153C144.206 248.085 140.85 251.104 136.918 250.896Z" fill="#DE0000"/>
<path d="M137.669 236.657C137.394 236.643 137.124 236.648 136.856 236.663C140.385 237.254 142.986 240.409 142.793 244.067C142.599 247.725 139.681 250.589 136.109 250.804C136.374 250.848 136.642 250.882 136.917 250.896C140.849 251.104 144.205 248.085 144.413 244.153C144.62 240.221 141.601 236.865 137.669 236.657Z" fill="#E6E7E8"/>
<path d="M133.812 243.053C133.426 244.914 132.538 246.304 131.827 246.156C131.117 246.009 130.855 244.381 131.24 242.52C131.626 240.659 132.515 239.27 133.225 239.417C133.935 239.564 134.198 241.192 133.812 243.053Z" fill="#FF9CA8"/>
<path d="M159.098 232.472C154.279 232.217 150.578 228.104 150.833 223.284C151.087 218.465 155.201 214.764 160.02 215.019C164.84 215.273 168.54 219.387 168.286 224.207C168.031 229.026 163.917 232.727 159.098 232.472Z" fill="#E6E7E8"/>
<path d="M159.184 230.865C155.251 230.657 152.232 227.301 152.44 223.369C152.648 219.436 156.004 216.417 159.936 216.625C163.868 216.832 166.887 220.189 166.68 224.121C166.472 228.053 163.116 231.073 159.184 230.865Z" fill="#DE0000"/>
<path d="M159.934 216.627C159.66 216.613 159.389 216.618 159.122 216.634C162.651 217.224 165.251 220.38 165.058 224.038C164.865 227.695 161.946 230.56 158.375 230.775C158.639 230.819 158.908 230.852 159.182 230.867C163.115 231.075 166.47 228.055 166.678 224.123C166.886 220.191 163.866 216.835 159.934 216.627Z" fill="#E6E7E8"/>
<path d="M156.078 223.02C155.692 224.881 154.803 226.27 154.093 226.123C153.383 225.976 153.12 224.348 153.506 222.486C153.892 220.625 154.781 219.236 155.491 219.383C156.201 219.531 156.463 221.159 156.078 223.02Z" fill="#FF9CA8"/>
<path d="M151.723 269.057C146.903 268.803 143.203 264.689 143.458 259.869C143.712 255.05 147.826 251.349 152.645 251.604C157.465 251.858 161.165 255.972 160.911 260.792C160.656 265.611 156.543 269.312 151.723 269.057Z" fill="#E6E7E8"/>
<path d="M151.808 267.451C147.876 267.244 144.857 263.888 145.065 259.955C145.273 256.023 148.629 253.004 152.561 253.212C156.493 253.42 159.512 256.776 159.304 260.708C159.097 264.64 155.741 267.659 151.808 267.451Z" fill="#DE0000"/>
<path d="M152.564 253.21C152.289 253.196 152.019 253.201 151.751 253.217C155.28 253.807 157.881 256.963 157.687 260.62C157.494 264.278 154.575 267.143 151.004 267.357C151.268 267.402 151.537 267.435 151.811 267.45C155.744 267.657 159.099 264.638 159.307 260.706C159.515 256.774 156.496 253.418 152.564 253.21Z" fill="#E6E7E8"/>
<path d="M148.703 259.607C148.317 261.468 147.428 262.857 146.718 262.71C146.008 262.562 145.745 260.935 146.131 259.073C146.517 257.212 147.405 255.823 148.115 255.97C148.826 256.118 149.089 257.746 148.703 259.607Z" fill="#FF9CA8"/>
<path d="M174.45 249.04C179.276 249.04 183.188 245.127 183.188 240.301C183.188 235.475 179.276 231.562 174.45 231.562C169.623 231.562 165.711 235.475 165.711 240.301C165.711 245.127 169.623 249.04 174.45 249.04Z" fill="#E6E7E8"/>
<path d="M179.216 245.603C182.144 242.97 182.382 238.461 179.748 235.534C177.115 232.607 172.607 232.369 169.679 235.002C166.752 237.636 166.514 242.144 169.147 245.071C171.781 247.999 176.289 248.237 179.216 245.603Z" fill="#FF7384"/>
<path d="M174.829 233.181C174.555 233.166 174.284 233.171 174.017 233.187C177.545 233.777 180.146 236.933 179.953 240.591C179.759 244.249 176.841 247.113 173.27 247.328C173.534 247.372 173.803 247.406 174.077 247.42C178.009 247.627 181.365 244.608 181.573 240.676C181.781 236.744 178.761 233.389 174.829 233.181Z" fill="#E6E7E8"/>
<path d="M170.968 239.575C170.582 241.436 169.694 242.825 168.984 242.678C168.273 242.531 168.011 240.903 168.397 239.042C168.783 237.18 169.671 235.791 170.381 235.938C171.092 236.086 171.354 237.714 170.968 239.575Z" fill="#FF9CA8"/>
<path d="M166.618 285.61C161.798 285.356 158.097 281.242 158.352 276.423C158.607 271.603 162.72 267.903 167.54 268.157C172.36 268.412 176.06 272.525 175.805 277.345C175.551 282.165 171.437 285.865 166.618 285.61Z" fill="#E6E7E8"/>
<path d="M166.703 284.007C162.771 283.799 159.752 280.443 159.959 276.511C160.167 272.579 163.523 269.56 167.455 269.767C171.388 269.975 174.407 273.331 174.199 277.263C173.991 281.195 170.635 284.214 166.703 284.007Z" fill="#DE0000"/>
<path d="M167.454 269.766C167.18 269.751 166.909 269.756 166.642 269.772C170.17 270.362 172.771 273.518 172.578 277.176C172.385 280.834 169.466 283.698 165.895 283.913C166.159 283.957 166.428 283.99 166.702 284.005C170.634 284.213 173.99 281.193 174.198 277.261C174.405 273.329 171.386 269.974 167.454 269.766Z" fill="#E6E7E8"/>
<path d="M163.597 276.16C163.211 278.021 162.323 279.41 161.613 279.263C160.903 279.116 160.639 277.488 161.026 275.627C161.412 273.765 162.3 272.376 163.01 272.523C163.721 272.67 163.984 274.299 163.597 276.16Z" fill="#FF9CA8"/>
<path d="M195.186 263.356C198.774 260.128 199.066 254.603 195.838 251.015C192.61 247.427 187.085 247.135 183.497 250.363C179.909 253.591 179.617 259.116 182.845 262.704C186.073 266.292 191.598 266.584 195.186 263.356Z" fill="#E6E7E8"/>
<path d="M194.111 262.159C197.038 259.525 197.276 255.018 194.642 252.09C192.009 249.163 187.501 248.924 184.574 251.558C181.646 254.191 181.408 258.699 184.042 261.627C186.676 264.554 191.183 264.792 194.111 262.159Z" fill="#FF7384"/>
<path d="M189.72 249.736C189.445 249.721 189.175 249.726 188.907 249.742C192.436 250.332 195.036 253.488 194.843 257.146C194.65 260.804 191.732 263.668 188.16 263.883C188.425 263.927 188.693 263.96 188.968 263.975C192.9 264.183 196.256 261.164 196.464 257.231C196.671 253.3 193.652 249.944 189.72 249.736Z" fill="#E6E7E8"/>
<path d="M185.863 256.128C185.477 257.989 184.588 259.379 183.878 259.231C183.168 259.084 182.905 257.456 183.291 255.595C183.677 253.734 184.566 252.344 185.276 252.492C185.986 252.639 186.249 254.267 185.863 256.128Z" fill="#FF9CA8"/>
<path d="M181.512 302.168C176.693 301.913 172.992 297.8 173.247 292.98C173.501 288.16 177.615 284.46 182.434 284.715C187.254 284.969 190.955 289.083 190.7 293.902C190.445 298.722 186.332 302.422 181.512 302.168Z" fill="#E6E7E8"/>
<path d="M181.598 300.56C177.665 300.352 174.646 296.996 174.854 293.064C175.062 289.132 178.418 286.113 182.35 286.32C186.282 286.528 189.301 289.884 189.094 293.816C188.886 297.749 185.53 300.768 181.598 300.56Z" fill="#FF7384"/>
<path d="M182.348 286.319C182.074 286.304 181.804 286.309 181.536 286.325C185.065 286.916 187.665 290.071 187.472 293.729C187.279 297.387 184.361 300.251 180.789 300.466C181.054 300.51 181.322 300.543 181.596 300.558C185.529 300.766 188.885 297.746 189.092 293.814C189.3 289.883 186.281 286.527 182.348 286.319Z" fill="#E6E7E8"/>
<path d="M178.488 292.715C178.102 294.576 177.213 295.965 176.503 295.818C175.793 295.671 175.53 294.043 175.916 292.182C176.302 290.321 177.19 288.931 177.901 289.079C178.611 289.226 178.874 290.854 178.488 292.715Z" fill="#FF9CA8"/>
<path d="M210.08 279.911C213.668 276.683 213.96 271.158 210.732 267.57C207.505 263.982 201.979 263.69 198.391 266.918C194.803 270.146 194.511 275.671 197.739 279.259C200.967 282.847 206.492 283.139 210.08 279.911Z" fill="#E6E7E8"/>
<path d="M209.001 278.714C211.928 276.081 212.166 271.573 209.533 268.645C206.899 265.718 202.391 265.48 199.464 268.113C196.537 270.747 196.299 275.254 198.933 278.182C201.566 281.109 206.074 281.347 209.001 278.714Z" fill="#FF7384"/>
<path d="M204.614 266.289C204.339 266.275 204.069 266.28 203.802 266.295C207.33 266.886 209.931 270.041 209.738 273.699C209.544 277.357 206.626 280.221 203.055 280.436C203.319 280.48 203.588 280.513 203.862 280.528C207.794 280.736 211.15 277.717 211.358 273.785C211.565 269.853 208.546 266.497 204.614 266.289Z" fill="#E6E7E8"/>
<path d="M200.757 272.681C200.371 274.543 199.483 275.932 198.773 275.785C198.062 275.637 197.8 274.009 198.186 272.148C198.572 270.287 199.46 268.898 200.17 269.045C200.881 269.192 201.143 270.82 200.757 272.681Z" fill="#FF9CA8"/>
<path d="M437.799 41.3138V378.348C437.799 381.889 434.929 384.759 431.388 384.759H174.583C171.043 384.759 168.172 381.888 168.172 378.348V41.3138C168.172 37.7735 171.043 34.9082 174.583 34.9082H431.388C434.929 34.9078 437.799 37.7731 437.799 41.3138Z" fill="white"/>
<path d="M426.538 40.0759H179.432C175.54 40.0759 172.387 43.3024 172.387 47.2826V374.447C172.387 378.427 175.541 381.653 179.432 381.653H426.538C430.43 381.653 433.583 378.427 433.583 374.447V47.2826C433.583 43.3024 430.429 40.0759 426.538 40.0759Z" fill="#00FD65" fill-opacity="0.1"/>
<path d="M257.934 133.915C260.283 117.275 248.698 101.882 232.058 99.5324C215.418 97.1832 200.025 108.768 197.675 125.407C195.326 142.047 206.911 157.441 223.551 159.79C240.191 162.139 255.585 150.554 257.934 133.915Z" fill="#B3D3FF"/>
<path d="M227.334 133.31C234.172 133.31 239.715 127.767 239.715 120.93C239.715 114.092 234.172 108.549 227.334 108.549C220.496 108.549 214.953 114.092 214.953 120.93C214.953 127.767 220.496 133.31 227.334 133.31Z" fill="white"/>
<path d="M238.689 133.412C237.692 132.634 236.3 132.661 235.32 133.46C233.189 135.199 230.464 136.246 227.493 136.246C224.619 136.246 221.974 135.268 219.877 133.622C218.878 132.838 217.463 132.854 216.499 133.68C214.002 135.822 212.48 138.911 212.48 142.925V143.287C212.48 145.363 214.164 147.046 216.24 147.046H239.376C241.452 147.046 243.135 145.363 243.135 143.287V142.925C243.135 138.74 241.436 135.559 238.689 133.412Z" fill="white"/>
<path d="M399.724 108.55H273.183C271.386 108.55 269.93 107.788 269.93 106.849C269.93 105.909 271.386 105.147 273.183 105.147H399.724C401.521 105.147 402.977 105.909 402.977 106.849C402.977 107.788 401.521 108.55 399.724 108.55ZM399.724 118.528H273.183C271.386 118.528 269.93 117.766 269.93 116.827C269.93 115.887 271.386 115.125 273.183 115.125H399.724C401.521 115.125 402.977 115.887 402.977 116.827C402.977 117.766 401.521 118.528 399.724 118.528ZM399.724 128.506H273.183C271.386 128.506 269.93 127.744 269.93 126.805C269.93 125.865 271.386 125.103 273.183 125.103H399.724C401.521 125.103 402.977 125.865 402.977 126.805C402.977 127.744 401.521 128.506 399.724 128.506ZM399.724 138.484H273.183C271.386 138.484 269.93 137.722 269.93 136.782C269.93 135.843 271.386 135.081 273.183 135.081H399.724C401.521 135.081 402.977 135.843 402.977 136.782C402.977 137.722 401.521 138.484 399.724 138.484ZM399.724 148.461H273.183C271.386 148.461 269.93 147.699 269.93 146.76C269.93 145.82 271.386 145.059 273.183 145.059H399.724C401.521 145.059 402.977 145.82 402.977 146.76C402.977 147.699 401.521 148.461 399.724 148.461ZM215.092 187.203H211.232C206.09 187.203 201.922 183.035 201.922 177.893C201.922 172.752 206.09 168.583 211.232 168.583H215.092C220.234 168.583 224.402 172.751 224.402 177.893C224.402 183.035 220.234 187.203 215.092 187.203ZM215.092 212.666H211.232C206.09 212.666 201.922 208.498 201.922 203.356V203.356C201.922 198.214 206.09 194.046 211.232 194.046H215.092C220.234 194.046 224.402 198.214 224.402 203.356C224.402 208.498 220.234 212.666 215.092 212.666ZM367.562 173.695H240.863C240.229 173.695 239.714 173.181 239.714 172.546V171.955C239.714 171.321 240.229 170.807 240.863 170.807H367.562C368.196 170.807 368.711 171.321 368.711 171.955V172.546C368.711 173.181 368.196 173.695 367.562 173.695ZM277.269 182.061H240.863C240.229 182.061 239.714 181.547 239.714 180.913V180.322C239.714 179.687 240.229 179.173 240.863 179.173H277.269C277.903 179.173 278.418 179.687 278.418 180.322V180.913C278.418 181.547 277.903 182.061 277.269 182.061ZM302.64 200.742H240.863C240.229 200.742 239.714 200.227 239.714 199.593V199.002C239.714 198.368 240.229 197.853 240.863 197.853H302.64C303.274 197.853 303.789 198.368 303.789 199.002V199.593C303.789 200.227 303.274 200.742 302.64 200.742ZM289.347 209.406H240.863C240.229 209.406 239.714 208.891 239.714 208.257V207.666C239.714 207.032 240.229 206.517 240.863 206.517H289.348C289.982 206.517 290.496 207.032 290.496 207.666V208.257C290.496 208.891 289.982 209.406 289.347 209.406ZM303.461 182.061H284.779C284.144 182.061 283.63 181.547 283.63 180.913V180.322C283.63 179.688 284.145 179.173 284.779 179.173H303.461C304.095 179.173 304.61 179.688 304.61 180.322V180.913C304.609 181.547 304.095 182.061 303.461 182.061ZM327.749 200.742H309.067C308.432 200.742 307.918 200.227 307.918 199.593V199.002C307.918 198.368 308.433 197.853 309.067 197.853H327.749C328.383 197.853 328.898 198.368 328.898 199.002V199.593C328.898 200.227 328.384 200.742 327.749 200.742ZM363.131 182.061H312.448C311.813 182.061 311.299 181.547 311.299 180.913V180.322C311.299 179.687 311.813 179.173 312.448 179.173H363.131C363.765 179.173 364.28 179.687 364.28 180.322V180.913C364.28 181.547 363.765 182.061 363.131 182.061Z" fill="#B3D3FF"/>
<path d="M217.309 172.433C215.762 174.594 214.215 176.754 212.668 178.915C211.591 177.904 210.514 176.893 209.438 175.882C208.79 176.708 208.141 177.533 207.492 178.359C209.318 179.566 211.144 180.773 212.97 181.981C215.301 179.476 217.632 176.972 219.962 174.467C219.078 173.789 218.194 173.111 217.309 172.433ZM217.309 198.953C215.762 201.114 214.215 203.274 212.668 205.435C211.591 204.424 210.514 203.413 209.438 202.402C208.79 203.228 208.141 204.053 207.492 204.879C209.318 206.086 211.144 207.293 212.97 208.501C215.301 205.996 217.632 203.492 219.962 200.987C219.078 200.309 218.194 199.631 217.309 198.953Z" fill="white"/>
<path d="M215.092 243.033H211.232C206.09 243.033 201.922 238.865 201.922 233.724C201.922 228.582 206.09 224.413 211.232 224.413H215.092C220.234 224.413 224.402 228.582 224.402 233.723C224.402 238.865 220.234 243.033 215.092 243.033ZM302.64 231.109H240.863C240.229 231.109 239.714 230.595 239.714 229.96V229.37C239.714 228.735 240.229 228.221 240.863 228.221H302.64C303.274 228.221 303.789 228.735 303.789 229.37V229.96C303.789 230.595 303.274 231.109 302.64 231.109ZM289.347 239.772H240.863C240.229 239.772 239.714 239.258 239.714 238.624V238.033C239.714 237.399 240.229 236.884 240.863 236.884H289.348C289.982 236.884 290.496 237.399 290.496 238.033V238.624C290.496 239.258 289.982 239.772 289.347 239.772ZM327.749 231.109H309.067C308.432 231.109 307.918 230.595 307.918 229.96V229.37C307.918 228.735 308.433 228.221 309.067 228.221H327.749C328.383 228.221 328.898 228.735 328.898 229.37V229.96C328.898 230.595 328.384 231.109 327.749 231.109Z" fill="#B3D3FF"/>
<path d="M217.309 229.316C215.762 231.477 214.215 233.637 212.668 235.798C211.591 234.787 210.514 233.776 209.438 232.765C208.79 233.591 208.141 234.416 207.492 235.242C209.318 236.449 211.144 237.656 212.97 238.864C215.301 236.359 217.632 233.855 219.962 231.35C219.078 230.672 218.194 229.995 217.309 229.316Z" fill="white"/>
<path d="M215.092 273.399H211.232C206.09 273.399 201.922 269.23 201.922 264.089C201.922 258.947 206.09 254.779 211.232 254.779H215.092C220.234 254.779 224.402 258.947 224.402 264.088C224.402 269.23 220.234 273.399 215.092 273.399ZM302.64 261.474H240.863C240.229 261.474 239.714 260.959 239.714 260.325V259.734C239.714 259.1 240.229 258.586 240.863 258.586H302.64C303.274 258.586 303.789 259.1 303.789 259.734V260.325C303.789 260.96 303.274 261.474 302.64 261.474ZM289.347 270.138H240.863C240.229 270.138 239.714 269.623 239.714 268.989V268.398C239.714 267.764 240.229 267.249 240.863 267.249H289.348C289.982 267.249 290.496 267.764 290.496 268.398V268.989C290.496 269.623 289.982 270.138 289.347 270.138ZM327.749 261.474H309.067C308.432 261.474 307.918 260.959 307.918 260.325V259.734C307.918 259.1 308.433 258.586 309.067 258.586H327.749C328.383 258.586 328.898 259.1 328.898 259.734V260.325C328.898 260.96 328.384 261.474 327.749 261.474Z" fill="#B3D3FF"/>
<path d="M217.309 259.682C215.762 261.842 214.215 264.003 212.668 266.163C211.591 265.153 210.514 264.142 209.438 263.131C208.79 263.956 208.141 264.782 207.492 265.607C209.318 266.815 211.144 268.022 212.97 269.229C215.301 266.725 217.632 264.22 219.962 261.716C219.078 261.038 218.194 260.36 217.309 259.682Z" fill="white"/>
<path d="M387.507 367.329C378.274 367.329 370.762 359.818 370.762 350.584C370.762 341.351 378.274 333.839 387.507 333.839C396.74 333.839 404.252 341.351 404.252 350.584C404.252 359.818 396.74 367.329 387.507 367.329ZM387.507 335.112C378.976 335.112 372.035 342.053 372.035 350.584C372.035 359.115 378.976 366.056 387.507 366.056C396.038 366.056 402.979 359.115 402.979 350.584C402.979 342.053 396.038 335.112 387.507 335.112Z" fill="#B3D3FF"/>
<path d="M387.507 361.214C393.377 361.214 398.136 356.455 398.136 350.585C398.136 344.715 393.377 339.957 387.507 339.957C381.637 339.957 376.879 344.715 376.879 350.585C376.879 356.455 381.637 361.214 387.507 361.214Z" fill="#B3D3FF"/>
<path d="M358.093 342.216H292.146C291.649 342.216 291.247 341.814 291.247 341.318V340.856C291.247 340.36 291.65 339.958 292.146 339.958H358.093C358.589 339.958 358.992 340.36 358.992 340.856V341.318C358.992 341.814 358.59 342.216 358.093 342.216ZM358.093 347.468H333.764C333.268 347.468 332.866 347.065 332.866 346.569V346.107C332.866 345.611 333.268 345.209 333.764 345.209H358.093C358.589 345.209 358.992 345.611 358.992 346.107V346.569C358.992 347.065 358.59 347.468 358.093 347.468ZM324.221 347.468H310.92C310.424 347.468 310.022 347.065 310.022 346.569V346.107C310.022 345.611 310.424 345.209 310.92 345.209H324.221C324.717 345.209 325.12 345.611 325.12 346.107V346.569C325.12 347.065 324.717 347.468 324.221 347.468ZM358.093 352.844H344.792C344.296 352.844 343.894 352.442 343.894 351.946V351.484C343.894 350.988 344.296 350.586 344.792 350.586H358.093C358.589 350.586 358.992 350.988 358.992 351.484V351.946C358.992 352.442 358.59 352.844 358.093 352.844ZM387.936 364.331C387.47 364.331 387 364.307 386.539 364.261C386.195 364.226 385.945 363.919 385.98 363.576C386.014 363.232 386.32 362.981 386.664 363.016C387.528 363.103 388.419 363.1 389.284 363.008C389.627 362.969 389.935 363.22 389.972 363.564C390.009 363.907 389.76 364.215 389.417 364.252C388.928 364.304 388.43 364.331 387.936 364.331ZM383.911 363.704C383.847 363.704 383.783 363.694 383.72 363.674C382.806 363.38 381.919 362.989 381.085 362.51C380.785 362.338 380.682 361.955 380.854 361.656C381.026 361.357 381.408 361.253 381.707 361.425C382.465 361.861 383.271 362.216 384.102 362.483C384.43 362.588 384.612 362.941 384.506 363.27C384.421 363.535 384.175 363.704 383.911 363.704ZM392.037 363.679C391.774 363.679 391.53 363.512 391.443 363.248C391.336 362.92 391.514 362.566 391.843 362.459C392.672 362.187 393.475 361.826 394.23 361.386C394.528 361.213 394.911 361.314 395.085 361.612C395.259 361.911 395.158 362.294 394.859 362.468C394.028 362.951 393.145 363.348 392.232 363.648C392.168 363.669 392.102 363.679 392.037 363.679ZM379.168 360.983C379.02 360.983 378.871 360.93 378.751 360.823C378.035 360.182 377.384 359.465 376.817 358.691C376.612 358.413 376.672 358.021 376.951 357.817C377.23 357.613 377.622 357.673 377.826 357.951C378.342 358.655 378.934 359.308 379.585 359.891C379.843 360.121 379.865 360.516 379.635 360.774C379.511 360.913 379.339 360.983 379.168 360.983ZM396.763 360.929C396.593 360.929 396.423 360.86 396.299 360.724C396.067 360.468 396.087 360.072 396.343 359.84C396.991 359.254 397.579 358.598 398.091 357.89C398.294 357.61 398.685 357.549 398.964 357.751C399.244 357.953 399.306 358.344 399.104 358.624C398.541 359.402 397.894 360.123 397.182 360.768C397.063 360.876 396.913 360.929 396.763 360.929ZM375.936 356.574C375.698 356.574 375.47 356.437 375.366 356.205C374.971 355.329 374.668 354.408 374.466 353.469C374.393 353.132 374.608 352.799 374.945 352.726C375.283 352.653 375.616 352.868 375.688 353.205C375.872 354.059 376.148 354.895 376.506 355.691C376.648 356.006 376.507 356.377 376.193 356.519C376.11 356.556 376.022 356.574 375.936 356.574ZM399.968 356.5C399.883 356.5 399.797 356.483 399.715 356.446C399.399 356.306 399.257 355.936 399.396 355.621C399.75 354.823 400.02 353.984 400.199 353.129C400.27 352.791 400.602 352.575 400.939 352.645C401.278 352.716 401.494 353.047 401.424 353.386C401.227 354.327 400.929 355.249 400.54 356.128C400.437 356.361 400.208 356.5 399.968 356.5ZM374.781 351.23C374.436 351.23 374.156 350.95 374.156 350.605V350.551C374.156 349.586 374.256 348.623 374.454 347.688C374.525 347.35 374.856 347.133 375.195 347.205C375.533 347.277 375.749 347.609 375.677 347.946C375.497 348.797 375.406 349.673 375.406 350.551V350.605C375.407 350.95 375.127 351.23 374.781 351.23ZM401.09 351.149C400.745 351.149 400.466 350.87 400.465 350.525C400.463 349.647 400.37 348.771 400.189 347.921C400.117 347.583 400.332 347.251 400.67 347.179C401.009 347.107 401.34 347.322 401.412 347.66C401.611 348.595 401.714 349.558 401.716 350.522C401.716 350.868 401.437 351.148 401.091 351.149H401.09ZM375.914 345.828C375.829 345.828 375.743 345.81 375.66 345.774C375.344 345.633 375.202 345.263 375.343 344.948C375.733 344.072 376.218 343.232 376.784 342.454C376.988 342.175 377.379 342.113 377.658 342.316C377.937 342.519 377.999 342.911 377.796 343.19C377.281 343.897 376.841 344.661 376.485 345.457C376.382 345.69 376.153 345.828 375.914 345.828ZM399.947 345.804C399.708 345.804 399.48 345.666 399.376 345.434C399.02 344.638 398.578 343.877 398.062 343.17C397.858 342.892 397.919 342.501 398.198 342.297C398.477 342.093 398.868 342.154 399.072 342.433C399.64 343.21 400.126 344.048 400.518 344.923C400.659 345.238 400.518 345.608 400.203 345.749C400.119 345.786 400.033 345.804 399.947 345.804ZM379.129 341.405C378.958 341.405 378.788 341.335 378.664 341.198C378.433 340.942 378.454 340.546 378.71 340.315C379.424 339.67 380.207 339.1 381.037 338.619C381.335 338.446 381.718 338.548 381.892 338.847C382.065 339.146 381.963 339.529 381.664 339.702C380.91 340.139 380.198 340.658 379.548 341.244C379.428 341.352 379.278 341.405 379.129 341.405ZM396.724 341.388C396.575 341.388 396.425 341.335 396.306 341.228C395.655 340.643 394.942 340.126 394.186 339.69C393.887 339.517 393.784 339.135 393.957 338.835C394.13 338.536 394.512 338.434 394.811 338.606C395.642 339.085 396.427 339.655 397.142 340.297C397.399 340.528 397.42 340.923 397.189 341.18C397.066 341.318 396.895 341.388 396.724 341.388ZM383.86 338.666C383.596 338.666 383.351 338.498 383.265 338.233C383.158 337.905 383.338 337.552 383.666 337.445C384.579 337.148 385.527 336.947 386.483 336.846C386.827 336.812 387.134 337.06 387.17 337.403C387.206 337.747 386.957 338.054 386.613 338.09C385.744 338.181 384.883 338.364 384.054 338.634C383.989 338.656 383.924 338.666 383.86 338.666ZM391.987 338.657C391.923 338.657 391.858 338.647 391.794 338.627C390.965 338.359 390.103 338.177 389.233 338.088C388.889 338.052 388.639 337.745 388.674 337.401C388.71 337.058 389.015 336.809 389.361 336.843C390.318 336.942 391.266 337.141 392.179 337.436C392.508 337.543 392.688 337.895 392.582 338.224C392.496 338.489 392.251 338.657 391.987 338.657ZM250.317 324.278H208.623C206.044 324.278 203.953 322.187 203.953 319.607V289.978C203.953 287.399 206.044 285.308 208.623 285.308H250.317C252.896 285.308 254.987 287.399 254.987 289.978V319.607C254.987 322.187 252.896 324.278 250.317 324.278ZM316.328 324.278H274.634C272.055 324.278 269.964 322.187 269.964 319.607V289.978C269.964 287.399 272.055 285.308 274.634 285.308H316.328C318.907 285.308 320.998 287.399 320.998 289.978V319.607C320.998 322.187 318.907 324.278 316.328 324.278Z" fill="#B3D3FF"/>
<path d="M239.118 294.32C236.324 290.911 222.415 290.818 219.82 294.32C220.866 298.461 221.144 302.321 219.82 305.593C219.82 314.552 229.469 318.947 229.469 318.947C229.469 318.947 239.117 314.001 239.117 305.593C237.793 302.321 238.071 298.461 239.118 294.32Z" fill="white"/>
<path d="M229.429 316.978C227.356 315.804 221.736 312.059 221.551 305.905C222.678 302.885 222.737 299.355 221.732 294.895C222.933 294.136 225.674 293.455 229.31 293.455C233.026 293.455 235.892 294.156 237.194 294.94C236.2 299.379 236.262 302.894 237.385 305.903C237.188 311.692 231.507 315.702 229.429 316.978Z" fill="#B3D3FF"/>
<path d="M234.007 303.376H231.049C230.917 303.376 230.81 303.269 230.81 303.136V300.179C230.81 300.046 230.703 299.939 230.57 299.939H228.891C228.759 299.939 228.652 300.046 228.652 300.179V303.136C228.652 303.269 228.544 303.376 228.412 303.376H225.454C225.322 303.376 225.215 303.483 225.215 303.616V305.295C225.215 305.427 225.322 305.534 225.454 305.534H228.412C228.544 305.534 228.652 305.641 228.652 305.774V308.732C228.652 308.864 228.759 308.972 228.891 308.972H230.57C230.703 308.972 230.81 308.864 230.81 308.732V305.774C230.81 305.641 230.917 305.534 231.049 305.534H234.007C234.139 305.534 234.247 305.427 234.247 305.295V303.616C234.247 303.483 234.139 303.376 234.007 303.376ZM301.396 316.538C301.109 316.538 301.022 316.343 300.989 316.114L300.986 316.114C300.986 316.111 300.986 316.105 300.987 316.098C300.977 316.023 300.972 315.946 300.968 315.87L300.921 315.085C300.881 314.409 300.825 313.443 300.759 312.284C300.626 309.968 300.451 306.879 300.277 303.789C300.102 300.686 299.927 297.582 299.797 295.262C298.687 302.161 297.24 311.178 297.203 311.535C297.203 311.747 297.045 311.896 296.834 311.92C296.455 311.961 296.453 311.962 296.111 310.511C295.956 309.855 295.754 308.98 295.553 308.104C295.402 307.446 295.252 306.789 295.123 306.224L293.728 311.341C293.677 311.525 293.506 311.656 293.318 311.647C293.128 311.643 292.965 311.51 292.922 311.325L289.318 295.613L284.91 304.792C284.841 304.937 284.695 305.028 284.536 305.028H274.421C274.192 305.028 274.006 304.842 274.006 304.613C274.006 304.383 274.192 304.197 274.421 304.197H284.275L289.083 294.183C289.159 294.023 289.33 293.93 289.503 293.949C289.679 293.969 289.823 294.098 289.862 294.269L293.362 309.525L294.759 304.401C294.809 304.217 294.981 304.087 295.169 304.095C295.36 304.099 295.523 304.232 295.565 304.419C295.909 305.935 296.36 307.911 296.698 309.369C297.271 305.725 298.506 298.048 299.587 291.343C299.621 291.133 299.803 290.98 300.019 290.994C300.231 291.005 300.4 291.173 300.412 291.385C300.738 297.193 301.269 306.643 301.576 312.013C302.289 307.189 303.452 299.454 303.913 296.39C303.943 296.191 304.112 296.041 304.314 296.037C304.518 296.049 304.691 296.172 304.731 296.37L306.361 304.476H316.543C316.772 304.476 316.958 304.662 316.958 304.892C316.958 305.122 316.773 305.307 316.543 305.307H306.021C305.823 305.307 305.653 305.168 305.614 304.974L304.383 298.853C303.353 305.702 301.85 315.749 301.815 316.144C301.797 316.356 301.621 316.531 301.409 316.536C301.405 316.538 301.401 316.538 301.396 316.538Z" fill="white"/>
<path d="M416.265 287.695H336.897C336.237 287.695 335.703 287.161 335.703 286.502C335.703 285.843 336.237 285.308 336.897 285.308H416.265C416.924 285.308 417.458 285.843 417.458 286.502C417.458 287.161 416.924 287.695 416.265 287.695ZM416.265 298.175H336.897C336.237 298.175 335.703 297.641 335.703 296.982C335.703 296.322 336.237 295.788 336.897 295.788H416.265C416.924 295.788 417.458 296.322 417.458 296.982C417.458 297.641 416.924 298.175 416.265 298.175ZM416.265 308.655H336.897C336.237 308.655 335.703 308.121 335.703 307.462C335.703 306.803 336.237 306.268 336.897 306.268H416.265C416.924 306.268 417.458 306.803 417.458 307.462C417.458 308.121 416.924 308.655 416.265 308.655Z" fill="#B3D3FF"/>
<path d="M489.852 387.546C474.936 388.963 460.02 388.963 445.104 387.546C444.063 387.447 443.27 386.581 443.27 385.553C443.27 384.451 444.179 383.558 445.3 383.558H489.656C490.777 383.558 491.686 384.451 491.686 385.554C491.686 386.581 490.892 387.447 489.852 387.546ZM485.344 309.67H449.514C448.842 309.67 448.297 309.125 448.297 308.453V299.173C448.297 298.501 448.842 297.956 449.514 297.956H485.344C486.016 297.956 486.561 298.501 486.561 299.173V308.453C486.561 309.125 486.016 309.67 485.344 309.67Z" fill="#326AB3"/>
<path d="M485.573 311.36H449.375V313.3H485.573V311.36Z" fill="#326AB3"/>
<path d="M485.486 314.874H449.371C448.777 314.874 448.297 314.393 448.297 313.8C448.297 313.207 448.777 312.726 449.371 312.726H485.486C486.079 312.726 486.56 313.207 486.56 313.8C486.56 314.393 486.079 314.874 485.486 314.874ZM485.486 311.78H449.371C448.777 311.78 448.297 311.3 448.297 310.707C448.297 310.114 448.777 309.633 449.371 309.633H485.486C486.079 309.633 486.56 310.114 486.56 310.707C486.56 311.3 486.079 311.78 485.486 311.78Z" fill="#70AEFF"/>
<path d="M490.368 322.5V383.766C474.991 385.419 459.693 385.526 444.488 383.766V322.5C444.488 320.854 444.967 319.293 445.81 317.956C446.119 317.469 446.482 317.013 446.892 316.596V316.588C447.595 315.87 448.43 315.275 449.372 314.834H485.484C488.459 316.225 490.368 319.215 490.368 322.5Z" fill="#70AEFF"/>
<path d="M490.368 335.064H444.488V350.782H490.368V335.064Z" fill="white"/>
<path d="M490.368 331.265H444.488V333.405H490.368V331.265Z" fill="white"/>
<path d="M490.368 352.444H444.488V354.585H490.368V352.444Z" fill="white"/>
<path d="M490.371 322.5V383.766L486.516 384.148C486.702 375.184 487.489 326.624 483.243 321.279C479.453 316.509 446.895 316.596 446.895 316.596V316.588C447.598 315.87 448.433 315.275 449.375 314.834H485.487C488.462 316.225 490.371 319.215 490.371 322.5Z" fill="#E6E7E8"/>
<path d="M455.025 381.654H447.879C447.335 381.654 446.895 381.213 446.895 380.67V375.464C446.895 374.92 447.335 374.479 447.879 374.479H455.025C455.568 374.479 456.009 374.92 456.009 375.464V380.67C456.009 381.214 455.568 381.654 455.025 381.654ZM484.964 375.724H459.34C458.996 375.724 458.718 375.446 458.718 375.102C458.718 374.758 458.996 374.48 459.34 374.48H484.964C485.307 374.48 485.586 374.758 485.586 375.102C485.586 375.446 485.307 375.724 484.964 375.724ZM484.964 378.689H459.34C458.996 378.689 458.718 378.411 458.718 378.067C458.718 377.724 458.996 377.445 459.34 377.445H484.964C485.307 377.445 485.586 377.724 485.586 378.067C485.586 378.41 485.307 378.689 484.964 378.689Z" fill="white"/>
<path d="M450.303 324.831C450.303 326.998 449.393 328.755 448.269 328.755C447.145 328.755 446.234 326.998 446.234 324.831C446.234 322.665 447.145 320.908 448.269 320.908C449.393 320.908 450.303 322.665 450.303 324.831Z" fill="#CCCCCC"/>
<path d="M406.108 403.993L406.038 412.954L395.398 412.87C394.34 412.862 393.366 412.481 392.599 411.852H392.593C391.586 411.023 390.942 409.767 390.953 408.355C390.963 407.116 391.476 406 392.297 405.198C393.113 404.389 394.23 403.9 395.469 403.91L406.108 403.993Z" fill="#A8CEFF"/>
<path d="M421.201 408.592C421.192 409.83 420.678 410.946 419.863 411.749C419.042 412.551 417.924 413.047 416.686 413.037L406.039 412.953L406.11 403.993L416.756 404.077C418.548 404.091 420.089 405.154 420.786 406.685C421.056 407.266 421.206 407.914 421.201 408.592Z" fill="#03CBEB"/>
<path d="M421.201 408.592C421.192 409.83 420.678 410.946 419.863 411.749C419.042 412.551 417.924 413.047 416.686 413.037L406.039 412.953L406.11 403.993L416.756 404.077C418.548 404.091 420.089 405.154 420.786 406.685C421.056 407.266 421.206 407.914 421.201 408.592Z" fill="#5CA3FF"/>
<path d="M397.735 405.26C397.963 405.877 397.078 406.774 395.757 407.264C394.436 407.753 393.18 407.65 392.951 407.033C392.722 406.416 393.608 405.519 394.928 405.029C396.249 404.539 397.506 404.643 397.735 405.26ZM421.202 408.592C421.192 409.83 420.679 410.946 419.864 411.748C419.043 412.551 417.925 413.046 416.686 413.036L395.4 412.869C394.342 412.861 393.368 412.48 392.602 411.851C397.076 412.123 416.43 412.31 418.016 411.729C420.511 410.814 420.722 408.595 420.788 406.685C421.057 407.265 421.207 407.913 421.202 408.592Z" fill="#E6E7E8"/>
<path d="M463.917 394.616L463.846 403.576L453.206 403.493C452.148 403.484 451.175 403.103 450.408 402.475H450.402C449.394 401.645 448.751 400.39 448.762 398.977C448.772 397.739 449.284 396.623 450.106 395.82C450.921 395.012 452.039 394.522 453.277 394.532L463.917 394.616Z" fill="#A8CEFF"/>
<path d="M479.01 399.215C479 400.453 478.487 401.569 477.672 402.371C476.85 403.174 475.732 403.669 474.494 403.659L463.848 403.576L463.918 394.615L474.564 394.699C476.356 394.713 477.898 395.777 478.595 397.307C478.865 397.888 479.015 398.536 479.01 399.215Z" fill="#03CBEB"/>
<path d="M479.01 399.215C479 400.453 478.487 401.569 477.672 402.371C476.85 403.174 475.732 403.669 474.494 403.659L463.848 403.576L463.918 394.615L474.564 394.699C476.356 394.713 477.898 395.777 478.595 397.307C478.865 397.888 479.015 398.536 479.01 399.215Z" fill="#5CA3FF"/>
<path d="M455.543 395.88C455.772 396.497 454.887 397.395 453.566 397.884C452.245 398.374 450.988 398.271 450.76 397.654C450.531 397.037 451.416 396.139 452.737 395.65C454.058 395.16 455.314 395.263 455.543 395.88ZM479.01 399.212C479.001 400.45 478.488 401.567 477.673 402.369C476.851 403.171 475.733 403.667 474.495 403.657L453.209 403.49C452.151 403.481 451.177 403.1 450.41 402.472C454.884 402.744 474.239 402.93 475.825 402.349C478.32 401.434 478.53 399.215 478.596 397.305C478.865 397.885 479.016 398.533 479.01 399.212Z" fill="#E6E7E8"/>
<path d="M428.321 402.045L424.719 410.25L414.976 405.972C414.007 405.546 413.263 404.812 412.807 403.932L412.801 403.93C412.203 402.77 412.107 401.362 412.675 400.069C413.173 398.935 414.085 398.112 415.156 397.699C416.224 397.277 417.445 397.269 418.578 397.768L428.321 402.045Z" fill="#A8CEFF"/>
<path d="M440.37 412.229C439.873 413.362 438.961 414.185 437.895 414.601C436.824 415.014 435.601 415.027 434.467 414.53L424.719 410.25L428.321 402.045L438.07 406.325C439.711 407.046 440.707 408.631 440.743 410.313C440.76 410.952 440.643 411.607 440.37 412.229Z" fill="#03CBEB"/>
<path d="M440.37 412.229C439.873 413.362 438.961 414.185 437.895 414.601C436.824 415.014 435.601 415.027 434.467 414.53L424.719 410.25L428.321 402.045L438.07 406.325C439.711 407.046 440.707 408.631 440.743 410.313C440.76 410.952 440.643 411.607 440.37 412.229Z" fill="#5CA3FF"/>
<path d="M420.127 399.902C420.093 400.559 418.926 401.034 417.519 400.963C416.112 400.891 414.998 400.3 415.031 399.643C415.065 398.986 416.233 398.511 417.64 398.582C419.046 398.654 420.16 399.245 420.127 399.902ZM440.373 412.228C439.875 413.361 438.963 414.184 437.897 414.6C436.826 415.013 435.603 415.026 434.47 414.529L414.978 405.972C414.009 405.546 413.265 404.812 412.809 403.932C416.812 405.948 434.52 413.76 436.208 413.852C438.861 413.996 439.93 412.04 440.745 410.312C440.763 410.951 440.645 411.606 440.373 412.228Z" fill="#E6E7E8"/>
<path d="M510.304 250.412C518.044 250.412 524.319 244.138 524.319 236.397C524.319 228.657 518.044 222.382 510.304 222.382C502.564 222.382 496.289 228.657 496.289 236.397C496.289 244.138 502.564 250.412 510.304 250.412Z" fill="#C9DEFB"/>
<path d="M91.3197 293.827C99.06 293.827 105.335 287.553 105.335 279.812C105.335 272.072 99.06 265.797 91.3197 265.797C83.5794 265.797 77.3047 272.072 77.3047 279.812C77.3047 287.553 83.5794 293.827 91.3197 293.827Z" fill="#1F3F7F"/>
<path d="M530.578 269.819C535.414 269.819 539.335 265.898 539.335 261.061C539.335 256.225 535.414 252.304 530.578 252.304C525.741 252.304 521.82 256.225 521.82 261.061C521.82 265.898 525.741 269.819 530.578 269.819Z" fill="#C9DEFB"/>
<path d="M93.3796 278.205V274.284C93.3796 273.394 92.6581 272.673 91.7684 272.673C90.8787 272.673 90.1567 273.395 90.1571 274.284V278.205H86.2362C85.3465 278.205 84.6245 278.927 84.625 279.816C84.625 280.707 85.3465 281.428 86.2362 281.428H90.1571V285.341C90.1571 286.232 90.8787 286.953 91.7684 286.953C92.2132 286.953 92.6165 286.772 92.9081 286.481C93.1997 286.189 93.38 285.786 93.38 285.341V281.427H97.2937C97.7386 281.427 98.1418 281.247 98.4334 280.955C98.725 280.664 98.9054 280.261 98.9054 279.816C98.9059 278.925 98.1839 278.204 97.2942 278.204H93.3796V278.205Z" fill="white"/>
<path d="M101.003 127.273C108.744 127.273 115.018 120.998 115.018 113.257C115.018 105.517 108.744 99.2424 101.003 99.2424C93.263 99.2424 86.9883 105.517 86.9883 113.257C86.9883 120.998 93.263 127.273 101.003 127.273Z" fill="#1F3F7F"/>
<path d="M103.176 111.65V107.729C103.176 106.839 102.455 106.118 101.565 106.118C100.676 106.118 99.9536 106.84 99.954 107.729V111.65H96.0331C95.1434 111.65 94.4214 112.372 94.4219 113.262C94.4219 114.152 95.1434 114.873 96.0331 114.873H99.954V118.786C99.954 119.677 100.676 120.398 101.565 120.398C102.01 120.398 102.413 120.217 102.705 119.926C102.997 119.634 103.177 119.231 103.177 118.786V114.872H107.091C107.535 114.872 107.939 114.692 108.23 114.4C108.522 114.109 108.702 113.706 108.702 113.261C108.703 112.37 107.981 111.649 107.091 111.649H103.176V111.65ZM512.247 234.465V229.754C512.247 228.685 511.38 227.818 510.311 227.819C509.242 227.818 508.375 228.685 508.375 229.754V234.465H503.665C502.596 234.464 501.729 235.331 501.729 236.4C501.729 237.47 502.596 238.336 503.665 238.336H508.375V243.038C508.375 244.107 509.242 244.974 510.311 244.974C510.845 244.974 511.33 244.757 511.68 244.407C512.03 244.056 512.247 243.572 512.247 243.038V238.336H516.948C517.483 238.337 517.967 238.12 518.317 237.769C518.668 237.419 518.884 236.935 518.884 236.4C518.885 235.331 518.018 234.465 516.948 234.465H512.247ZM531.509 260.137V257.883C531.509 257.371 531.095 256.957 530.583 256.957C530.072 256.957 529.656 257.371 529.657 257.883V260.137H527.402C526.891 260.137 526.476 260.552 526.476 261.063C526.476 261.575 526.891 261.99 527.402 261.99H529.657V264.24C529.657 264.752 530.071 265.166 530.583 265.166C530.839 265.166 531.07 265.063 531.238 264.895C531.406 264.727 531.509 264.496 531.509 264.24V261.99H533.759C534.015 261.99 534.247 261.886 534.414 261.718C534.582 261.551 534.686 261.319 534.686 261.063C534.686 260.552 534.271 260.137 533.759 260.137H531.509Z" fill="white"/>
<path d="M110.316 85.8042C115.152 85.8042 119.073 81.8834 119.073 77.0469C119.073 72.2103 115.152 68.2896 110.316 68.2896C105.479 68.2896 101.559 72.2103 101.559 77.0469C101.559 81.8834 105.479 85.8042 110.316 85.8042Z" fill="#1F3F7F"/>
<path d="M111.307 75.6104V73.2076C111.307 72.6619 110.865 72.2198 110.319 72.2202C109.774 72.2198 109.331 72.6623 109.332 73.2076V75.6104H106.929C106.384 75.6099 105.941 76.0525 105.941 76.5977C105.941 77.1434 106.384 77.5855 106.929 77.5851H109.332V79.9838C109.332 80.5295 109.774 80.9716 110.319 80.9712C110.592 80.9712 110.839 80.8609 111.017 80.6819C111.196 80.5033 111.307 80.256 111.307 79.9834V77.5846H113.705C113.978 77.5846 114.225 77.4743 114.404 77.2953C114.583 77.1167 114.693 76.8694 114.693 76.5968C114.693 76.0512 114.251 75.609 113.706 75.6095H111.307V75.6104ZM337.437 219.332C324.438 214.323 303.171 216.886 292.825 222.778C287.133 225.332 282.732 227.679 278.924 227.533C275.479 227.404 271.233 225.311 265.85 222.99C230.953 204.77 184.303 226.283 186.669 268.527C186.667 310.098 213.463 317.201 215.897 337.449C217.571 351.374 218.218 406.568 244.516 406.568C274.515 408.265 262.847 329.989 278.881 329.989C287.962 329.989 290.733 405.796 312.721 406.568C340.239 407.535 339.325 350.161 341.342 337.449C343.776 317.201 371.18 310.098 371.18 268.526C371.181 244.699 358.629 226.084 337.437 219.332Z" fill="white"/>
<path d="M262.074 342.914C254.72 357.163 257.688 397.535 227.851 393.992C227.514 393.971 227.183 393.939 226.855 393.901C230.861 401.433 236.496 406.568 244.517 406.568C269.541 407.983 265.572 353.754 272.874 335.727C272.3 331.228 266.199 334.923 262.074 342.914ZM351.324 226.286C359.6 236.012 363.707 249.152 362.787 264.023C360.224 305.517 332.433 310.916 328.755 330.975C326.156 342.649 323.705 392.967 301.383 397.898C304.499 403.082 308.205 406.409 312.722 406.568C340.24 407.534 339.326 350.161 341.342 337.449C343.776 317.2 371.181 310.098 371.181 268.525C371.181 250.502 363.994 235.466 351.324 226.286Z" fill="#E6EDF5"/>
<path d="M360.663 35.0221L360.634 54.1647C360.629 57.7343 357.732 60.6231 354.162 60.6177L254.983 60.4699C251.414 60.4644 248.525 57.567 248.53 53.9978L248.559 34.8548L245.244 34.8499L245.215 54.6063C245.207 59.6674 249.304 63.7755 254.365 63.7832L354.771 63.9328C359.832 63.9405 363.94 59.8442 363.948 54.7831L363.977 35.0266L360.663 35.0221Z" fill="#4442A6"/>
<path d="M304.642 15.4431C299.635 15.4354 295.57 19.4888 295.563 24.4952L295.539 40.385L313.671 40.4121L313.694 24.5223C313.702 19.5155 309.649 15.4504 304.642 15.4431ZM304.623 27.9206C302.524 27.9175 300.824 26.2131 300.827 24.1132C300.83 22.0137 302.535 20.3139 304.635 20.3166C306.734 20.3197 308.434 22.0246 308.431 24.1245C308.428 26.2244 306.723 27.9238 304.623 27.9206Z" fill="#4260A1"/>
<path d="M363.743 40.4876L245.464 40.3113C242.952 40.3077 240.918 38.2674 240.922 35.7552C240.925 33.2425 242.965 31.2091 245.478 31.2131L363.757 31.3895C366.269 31.3931 368.303 33.4329 368.299 35.9451C368.295 38.4573 366.256 40.4912 363.743 40.4876ZM321.502 65.1198L289.972 65.0728C289.741 65.0724 289.555 64.8857 289.555 64.6556L289.564 58.8603C289.564 58.6302 289.751 58.4435 289.982 58.4439L321.512 58.4909C321.742 58.4914 321.928 58.6781 321.928 58.9082L321.92 64.7035C321.919 64.934 321.732 65.1203 321.502 65.1198Z" fill="#4260A1"/>
<path d="M476.329 22.4925C473.256 47.5555 474.371 75.3853 463.596 93.6558C457.561 103.887 441.535 111.025 433.912 115.063C424.777 109.801 410.431 102.919 404.219 92.0952C393.92 74.1548 394.482 46.8806 391.492 22.4929C403.144 20.4712 415.453 34.6427 433.912 22.4929C449.272 33.7503 458.291 23.2832 476.329 22.4925Z" fill="#326AB3"/>
<path d="M432.823 107.935C424.327 103.198 413.755 97.302 409.146 89.2717C402.006 76.8317 400.44 58.2796 398.926 40.3377C398.598 36.4534 398.264 32.4859 397.871 28.5447C399.418 28.9262 401.088 29.4629 402.883 30.0406C407.418 31.4986 412.556 33.151 418.498 33.151C423.761 33.1505 428.78 31.8539 433.746 29.1988C438.474 32.0248 443.137 33.3576 448.187 33.3576C452.969 33.3576 457.313 32.1699 461.911 30.9122C464.487 30.2079 467.112 29.49 469.921 28.9592C469.509 33.2626 469.175 37.5913 468.848 41.8273C467.397 60.6141 466.027 78.3588 458.705 90.7726C454.274 98.2853 441.956 104.569 434.597 108.323C434.407 108.42 434.219 108.516 434.033 108.61C433.636 108.388 433.232 108.163 432.823 107.935Z" fill="#94C2FF"/>
<path d="M463.13 30.5784C462.896 33.3389 462.682 36.093 462.472 38.8077C461.021 57.5945 459.651 75.3392 452.329 87.753C447.898 95.2657 435.58 101.549 428.221 105.303C428.211 105.308 428.202 105.313 428.191 105.319C429.771 106.229 431.33 107.099 432.824 107.933C433.234 108.161 433.638 108.387 434.035 108.608C434.221 108.514 434.409 108.418 434.6 108.321C441.959 104.566 454.277 98.2834 458.707 90.7706C466.029 78.3573 467.399 60.6122 468.85 41.8254C469.178 37.5894 469.511 33.2607 469.923 28.9573C467.555 29.4044 465.318 29.9853 463.13 30.5784Z" fill="#71A5EB"/>
<path d="M454.537 64.0519H441.565C440.985 64.0519 440.514 63.5813 440.514 63.0012V50.0292C440.514 49.4487 440.044 48.9785 439.464 48.9785H432.101C431.52 48.9785 431.05 49.4491 431.05 50.0292V63.0012C431.05 63.5817 430.579 64.0519 429.999 64.0519H417.028C416.447 64.0519 415.977 64.5225 415.977 65.103V72.4661C415.977 73.0461 416.447 73.5167 417.028 73.5167H429.999C430.58 73.5167 431.05 73.9873 431.05 74.5673V87.5394C431.05 88.1194 431.521 88.5901 432.101 88.5901H439.464C440.044 88.5901 440.514 88.1194 440.514 87.5394V74.5673C440.514 73.9869 440.985 73.5167 441.565 73.5167H454.537C455.118 73.5167 455.588 73.0461 455.588 72.4661V65.103C455.588 64.5225 455.118 64.0519 454.537 64.0519Z" fill="#71A5EB"/>
<path d="M452.669 62.0069H439.698C439.117 62.0069 438.647 61.5363 438.647 60.9558V47.9837C438.647 47.4033 438.176 46.9331 437.596 46.9331H430.233C429.653 46.9331 429.183 47.4037 429.183 47.9837V60.9558C429.183 61.5363 428.712 62.0069 428.132 62.0069H415.16C414.58 62.0069 414.109 62.4775 414.109 63.0576V70.4206C414.109 71.0011 414.58 71.4713 415.16 71.4713H428.132C428.713 71.4713 429.183 71.9419 429.183 72.5219V85.494C429.183 86.0745 429.653 86.5451 430.233 86.5451H437.596C438.177 86.5451 438.647 86.0745 438.647 85.494V72.5219C438.647 71.9419 439.118 71.4713 439.698 71.4713H452.669C453.25 71.4713 453.72 71.0007 453.72 70.4206V63.0576C453.72 62.4775 453.25 62.0069 452.669 62.0069Z" fill="white"/>
<path d="M410.139 38.815C410.878 38.8877 411.619 38.9194 412.357 38.9194C413.834 38.9185 415.299 38.7679 416.739 38.5238C418.175 38.2621 419.595 37.9144 420.95 37.3959C420.239 37.5319 419.526 37.6382 418.811 37.715C418.097 37.7991 417.382 37.8574 416.667 37.8891C415.24 37.9632 413.813 37.9415 412.407 37.8068C411 37.6843 409.613 37.4347 408.279 37.0469C406.94 36.6789 405.661 36.1436 404.476 35.4718L403.176 34.7354L403.185 36.2711C403.21 40.1771 403.388 44.0578 403.664 47.9434C403.941 51.8268 404.345 55.7039 404.9 59.5651C405.458 63.425 406.187 67.2713 407.227 71.0512C407.763 72.9359 408.365 74.8098 409.168 76.6105C409.563 77.5119 410.018 78.3917 410.553 79.2213C411.081 80.0508 411.718 80.8338 412.505 81.4125C412.17 81.0585 411.88 80.6729 411.622 80.2696C411.377 79.8564 411.142 79.441 410.943 79.0047C410.538 78.1381 410.217 77.2348 409.924 76.3243C409.632 75.412 409.397 74.4816 409.169 73.5503C408.941 72.6186 408.74 71.6796 408.559 70.7361C407.824 66.963 407.335 63.1375 406.887 59.3079C406.448 55.476 406.099 51.6302 405.776 47.7802C405.498 44.3991 405.253 41.0071 405.034 37.6242C405.977 37.9922 406.945 38.2829 407.926 38.4872C408.658 38.6459 409.399 38.7462 410.139 38.815Z" fill="white"/>
<path d="M161.403 333.196L112.398 332.547L112.438 319.653C112.464 310.874 119.973 303.83 129.175 303.952L144.802 304.159C154.004 304.281 161.469 311.523 161.442 320.302L161.403 333.196ZM117.385 329.325L156.277 329.841L156.387 320.236C156.405 314.116 151.202 309.068 144.788 308.983L129.16 308.776C122.746 308.691 117.513 313.601 117.494 319.72L117.385 329.325Z" fill="#497DC8"/>
<path d="M115.816 319.699L115.707 329.304L117.383 329.326L117.493 319.721C117.512 313.602 122.746 308.692 129.16 308.777L127.483 308.755C121.069 308.669 115.835 313.579 115.816 319.699ZM144.802 304.16L143.125 304.138C152.327 304.26 159.792 311.502 159.765 320.281L159.726 333.175L161.402 333.197L161.442 320.303C161.468 311.524 154.003 304.282 144.802 304.16ZM193.719 334.681L193.543 392.368C193.534 395.306 191.03 397.655 187.949 397.615L174.768 397.44L174.977 329.112L188.158 329.286C191.239 329.327 193.728 331.742 193.719 334.681Z" fill="#285EA8"/>
<path d="M184.342 334.193L184.163 392.61C184.155 395.347 181.823 397.535 178.954 397.497L95.0976 396.386C91.7223 396.341 88.994 393.695 89.0039 390.474L89.1775 333.807C89.1875 330.587 91.9316 328.013 95.3069 328.057L179.163 329.168C182.032 329.207 184.351 331.456 184.342 334.193Z" fill="#497DC8"/>
<path d="M171.518 393.038L101.588 392.111C97.6295 392.059 94.4297 388.954 94.4414 385.178L94.5825 339.142C94.5942 335.365 97.8126 332.346 101.772 332.398L171.702 333.325C175.66 333.377 178.86 336.482 178.849 340.258L178.708 386.294C178.696 390.071 175.477 393.09 171.518 393.038Z" fill="#9AC4FF"/>
<path d="M154.522 359.587L138.245 359.371L138.293 343.841C138.297 342.205 136.906 340.855 135.19 340.832C133.475 340.809 132.075 342.122 132.07 343.759L132.023 359.288L115.745 359.072C114.03 359.05 112.63 360.363 112.625 361.999C112.62 363.636 114.011 364.986 115.727 365.009L132.004 365.224L131.957 380.754C131.952 382.39 133.343 383.74 135.059 383.763C136.775 383.786 138.175 382.473 138.18 380.836L138.227 365.307L154.505 365.522C156.22 365.545 157.62 364.232 157.624 362.595C157.629 360.959 156.238 359.609 154.522 359.587Z" fill="white"/>
<path d="M110.938 346.927C113.792 343.243 113.967 338.739 111.328 336.865C108.689 334.99 104.236 336.457 101.382 340.139C98.5274 343.822 98.3524 348.327 100.991 350.201C103.63 352.076 108.083 350.609 110.938 346.927Z" fill="#C7DEFF"/>
<path d="M326.004 398.949V394.172H283.697V398.949H326.004Z" fill="#1F3F7F"/>
<path d="M333.56 418.557C345.782 418.557 355.69 408.802 355.69 396.768C355.69 384.735 345.782 374.979 333.56 374.979C321.338 374.979 311.43 384.735 311.43 396.768C311.43 408.802 321.338 418.557 333.56 418.557Z" fill="#1F3F7F"/>
<path d="M333.557 414.525C343.519 414.525 351.595 406.574 351.595 396.767C351.595 386.959 343.519 379.008 333.557 379.008C323.595 379.008 315.52 386.959 315.52 396.767C315.52 406.574 323.595 414.525 333.557 414.525Z" fill="#96D2FF"/>
<path d="M346.902 398.119C349.032 396.411 348.321 391.986 345.315 388.237C342.308 384.488 338.144 382.834 336.014 384.542C333.883 386.251 334.594 390.675 337.6 394.424C340.607 398.173 344.771 399.827 346.902 398.119Z" fill="#C4E6FF"/>
<path d="M301.381 402.175C302.732 401.645 303.62 400.343 303.62 398.892V393.476C303.62 391.963 302.655 390.618 301.221 390.134L287.495 385.5H140.393C137.807 385.5 135.727 390.437 135.727 396.548C135.727 402.685 137.807 407.621 140.393 407.621H287.495L301.381 402.175Z" fill="#7197E6"/>
<path d="M301.381 402.174C302.732 401.644 303.62 400.342 303.62 398.891V393.475C303.62 393.364 303.605 393.257 303.595 393.149C303.468 394.46 302.625 395.605 301.381 396.093L287.495 401.539H140.393C138.253 401.539 136.463 398.155 135.908 393.512C135.793 394.477 135.727 395.492 135.727 396.547C135.727 402.684 137.807 407.62 140.393 407.62H287.495L301.381 402.174Z" fill="#1F3F7F"/>
<path d="M276.261 409.861H161.397C160.587 409.861 159.868 408.981 159.384 407.619C159.002 406.526 158.777 405.138 158.777 403.644V389.475C158.777 387.954 159.002 386.593 159.373 385.499C159.857 384.138 160.576 383.257 161.397 383.257H276.261C277.071 383.257 277.801 384.138 278.274 385.499C278.656 386.593 278.881 387.953 278.881 389.475V403.644C278.881 405.138 278.656 406.526 278.263 407.619C277.79 408.981 277.07 409.861 276.261 409.861Z" fill="#162C58"/>
<path d="M278.263 407.619C278.656 406.525 278.881 405.137 278.881 403.643V401.427H169.617C168.808 401.427 168.088 400.547 167.605 399.185C167.222 398.092 166.998 396.704 166.998 395.21V383.257H161.397C160.576 383.257 159.856 384.138 159.373 385.499C159.002 386.593 158.777 387.953 158.777 389.474V403.643C158.777 405.137 159.002 406.525 159.384 407.619C159.868 408.98 160.587 409.86 161.397 409.86H276.261C277.071 409.861 277.791 408.98 278.263 407.619Z" fill="#2E4C8C"/>
<path d="M169.769 383.257H166.137V409.861H169.769V383.257Z" fill="#FFC86B"/>
<path d="M178.225 383.257H174.582V409.861H178.225V383.257Z" fill="#FFC86B"/>
<path d="M265.429 383.257H261.785V409.861H265.429V383.257Z" fill="#FFC86B"/>
<path d="M423.113 325.545H385.023V327.586H423.113V325.545Z" fill="#E65567"/>
<path d="M420.767 392.279C408.882 394.404 397.738 394.391 387.698 392.25C386.007 391.89 384.762 390.449 384.762 388.72V386.002H423.665V388.755C423.665 390.47 422.456 391.977 420.767 392.279Z" fill="#E65567"/>
<path d="M423.435 387.896C421.565 388.359 419.304 388.701 416.8 388.953C406.505 389.985 392.202 389.335 385.071 387.896C375.256 377.675 377.02 369.445 380.118 358.232C381.436 353.459 382.997 348.141 384.005 341.904C384.534 338.668 384.908 335.179 385.022 331.39C385.054 330.569 385.071 329.731 385.071 328.877C396.317 328.926 411.742 328.812 423.435 328.877C423.435 333.65 423.858 337.968 424.492 341.904C425.501 348.149 427.062 353.459 428.379 358.232C431.477 369.445 433.25 377.674 423.435 387.896Z" fill="#FF7384"/>
<path d="M424.809 323.727H383.232C382.56 323.727 382.016 323.182 382.016 322.511V312.618C382.016 311.946 382.56 311.402 383.232 311.402H424.809C425.481 311.402 426.026 311.946 426.026 312.618V322.511C426.026 323.182 425.482 323.727 424.809 323.727Z" fill="#E65567"/>
<path d="M385.663 372.303C385.663 375.71 384.231 378.472 382.465 378.472C380.698 378.472 379.266 375.71 379.266 372.303C379.266 368.896 380.698 366.133 382.465 366.133C384.231 366.133 385.663 368.896 385.663 372.303Z" fill="#CCCCCC"/>
<path d="M428.378 358.23H380.117C381.435 353.457 382.996 348.139 384.004 341.902H424.491C425.499 348.147 427.061 353.457 428.378 358.23Z" fill="white"/>
<path d="M423.437 387.896C421.567 388.359 419.306 388.701 416.802 388.953C437.557 376.612 421.225 340.683 418.238 335.149C415.107 329.348 385.032 331.398 385.032 331.398L385.023 331.39C385.056 330.569 385.072 329.731 385.072 328.877C396.318 328.926 411.744 328.812 423.437 328.877C423.437 358.972 440.066 370.568 423.437 387.896Z" fill="#E6E7E8"/>
<path d="M423.023 329.239H385.02C384.396 329.239 383.891 328.733 383.891 328.109C383.891 327.485 384.396 326.979 385.02 326.979H423.023C423.647 326.979 424.153 327.485 424.153 328.109C424.153 328.733 423.647 329.239 423.023 329.239ZM423.023 325.984H385.02C384.396 325.984 383.891 325.478 383.891 324.854C383.891 324.23 384.396 323.724 385.02 323.724H423.023C423.647 323.724 424.153 324.23 424.153 324.854C424.153 325.478 423.647 325.984 423.023 325.984Z" fill="#FF7384"/>
<path d="M393.683 384.092H387.752C387.348 384.092 387.02 383.764 387.02 383.359V379.207C387.02 378.803 387.347 378.475 387.752 378.475H393.683C394.087 378.475 394.416 378.802 394.416 379.207V383.359C394.416 383.764 394.088 384.092 393.683 384.092ZM417.757 382.32H397.42C396.909 382.32 396.495 381.906 396.495 381.396C396.495 380.885 396.909 380.471 397.42 380.471H417.757C418.268 380.471 418.682 380.885 418.682 381.396C418.682 381.906 418.268 382.32 417.757 382.32Z" fill="white"/>
</svg>
