<svg width="47" height="39" viewBox="0 0 47 39" fill="none" xmlns="http://www.w3.org/2000/svg">
<path d="M22.689 1.10547C20.2933 1.10547 17.9957 2.05716 16.3017 3.75117C14.6077 5.44519 13.656 7.74277 13.656 10.1385C13.656 17.2085 20.553 25.7145 22.36 27.8035C22.457 27.9145 22.5941 27.9826 22.7412 27.9929C22.8882 28.0032 23.0334 27.9549 23.145 27.8585L23.2 27.8035C24.983 25.7065 31.723 17.2075 31.723 10.1385C31.723 8.95216 31.4893 7.77746 31.0353 6.68146C30.5813 5.58546 29.9158 4.58962 29.0769 3.75082C28.238 2.91202 27.2421 2.24667 26.1461 1.79278C25.05 1.33889 23.8753 1.10534 22.689 1.10547ZM22.689 13.9605C21.8121 13.9603 20.955 13.7001 20.226 13.2128C19.497 12.7255 18.9288 12.033 18.5933 11.2228C18.2579 10.4127 18.1701 9.52121 18.3413 8.66119C18.5124 7.80117 18.9346 7.0112 19.5547 6.39116C20.1747 5.77111 20.9647 5.34883 21.8247 5.17772C22.6847 5.0066 23.5762 5.09432 24.3864 5.4298C25.1965 5.76527 25.889 6.33343 26.3763 7.06245C26.8636 7.79146 27.1238 8.64859 27.124 9.52547V9.53647C27.1214 10.7109 26.6529 11.8363 25.8214 12.6657C24.99 13.4951 23.8634 13.9607 22.689 13.9605Z" stroke="#EB00FF" stroke-linecap="round" stroke-linejoin="round"/>
<path d="M31.549 12.1874L32.724 12.1074L37.595 36.1164L27.471 37.9144M27.471 37.9144L11.556 36.2324L0.595001 37.9144L3.553 13.2674L12.542 12.1074M27.471 37.9144L25.761 24.4914M12.542 12.1074L13.831 12.1714M12.542 12.1074L11.9 36.2694" stroke="#333333" stroke-linecap="round" stroke-linejoin="round"/>
<rect x="24.595" y="15.9395" width="16.1087" height="16.1087" rx="2.4163" fill="#F2F3F7" stroke="#333333" stroke-width="0.724891"/>
<rect width="15.2791" height="15.2791" transform="translate(26.0115 18.1172) rotate(-27.2886)" fill="#F6F7FA"/>
<path d="M35.9065 17.261L41.1125 18.9235L39.4499 24.1295M31.4942 23.8854L41.0163 18.9732" stroke="#1F3F7F" stroke-width="0.954943" stroke-miterlimit="10" stroke-linecap="round" stroke-linejoin="round"/>
</svg>
