<svg width="108" height="101" viewBox="0 0 108 101" fill="none" xmlns="http://www.w3.org/2000/svg">
<g filter="url(#filter0_d_3244_60749)">
<rect x="6.54297" y="5.5957" width="93.1334" height="87.0472" rx="5.47844" fill="white" shape-rendering="crispEdges"/>
<path d="M66.6024 24.8423C62.7209 21.0744 58.5367 18.0542 55.1004 17.6403C54.9066 17.6114 54.711 17.5965 54.5151 17.5957H31.9139C31.7336 17.5943 31.5549 17.629 31.3882 17.6978C31.2215 17.7666 31.0703 17.8681 30.9436 17.9964C30.6882 18.2549 30.5444 18.6033 30.543 18.9667V76.2763C30.543 76.4562 30.5784 76.6344 30.6474 76.8006C30.7163 76.9668 30.8173 77.1178 30.9447 77.2449C31.072 77.3721 31.2231 77.4728 31.3895 77.5415C31.5558 77.6102 31.734 77.6453 31.9139 77.6451H72.7851C72.9646 77.6454 73.1424 77.6102 73.3082 77.5415C73.474 77.4727 73.6245 77.3718 73.751 77.2444C73.8791 77.1178 73.9809 76.967 74.0504 76.8009C74.1199 76.6347 74.1558 76.4564 74.1561 76.2763V38.1404C74.076 33.7114 70.6085 28.8863 66.6024 24.8423ZM64.6728 26.7831C66.4644 28.5324 68.0779 30.5132 69.2798 32.4228C68.2506 32.0274 67.1944 31.7061 66.1194 31.4613C64.1948 31.0454 62.2407 30.7798 60.275 30.6668C60.2839 30.373 60.2861 30.0392 60.2861 29.6764C60.2861 27.7401 60.1637 24.9848 59.4938 22.5544L59.4715 22.4876C61.3494 23.7354 63.0925 25.175 64.6728 26.7831ZM71.4097 74.9009H33.2805V20.3266H54.5173V20.3333C55.4431 20.2776 56.2421 21.1923 56.8542 23.2844C57.4106 25.2763 57.5508 27.8736 57.5486 29.6719C57.553 30.9939 57.4885 31.8797 57.4885 31.8797L57.3772 33.3308L58.8372 33.3464C58.8439 33.3464 62.2112 33.3865 65.514 34.1365C68.6878 34.822 71.1671 36.1885 71.4008 37.7353C71.4119 37.8733 71.4141 38.0113 71.4119 38.1404V74.8942L71.4097 74.9009Z" fill="#393939"/>
<g clip-path="url(#clip0_3244_60749)">
<rect x="64.1055" y="58.5391" width="21" height="21" fill="white"/>
<path fill-rule="evenodd" clip-rule="evenodd" d="M64.1055 69.0391C64.1055 66.2543 65.2117 63.5836 67.1808 61.6144C69.15 59.6453 71.8207 58.5391 74.6055 58.5391C77.3902 58.5391 80.061 59.6453 82.0301 61.6144C83.9992 63.5836 85.1055 66.2543 85.1055 69.0391C85.1055 71.8238 83.9992 74.4946 82.0301 76.4637C80.061 78.4328 77.3902 79.5391 74.6055 79.5391C71.8207 79.5391 69.15 78.4328 67.1808 76.4637C65.2117 74.4946 64.1055 71.8238 64.1055 69.0391ZM74.0063 73.5331L80.0515 65.9759L78.9595 65.1023L73.8047 71.5437L70.1535 68.5015L69.2575 69.5767L74.0063 73.5345V73.5331Z" fill="#008000"/>
<path d="M74.0063 73.5331L80.0515 65.9759L78.9595 65.1023L73.8047 71.5437L70.1535 68.5015L69.2575 69.5767L74.0063 73.5345V73.5331Z" fill="white"/>
</g>
<rect x="62.6055" y="57.0391" width="24" height="24" stroke="white" stroke-width="3"/>
<path d="M40.5156 41.7207H63.1142" stroke="#333333" stroke-width="1.36961" stroke-linecap="round"/>
<path d="M40.5156 47.8838H63.1142" stroke="#333333" stroke-width="1.36961" stroke-linecap="round"/>
<path d="M40.5156 54.0469H63.1142" stroke="#333333" stroke-width="1.36961" stroke-linecap="round"/>
<path d="M40.5156 60.21H63.1142" stroke="#333333" stroke-width="1.36961" stroke-linecap="round"/>
</g>
<defs>
<filter id="filter0_d_3244_60749" x="0.379729" y="0.117268" width="106.829" height="100.743" filterUnits="userSpaceOnUse" color-interpolation-filters="sRGB">
<feFlood flood-opacity="0" result="BackgroundImageFix"/>
<feColorMatrix in="SourceAlpha" type="matrix" values="0 0 0 0 0 0 0 0 0 0 0 0 0 0 0 0 0 0 127 0" result="hardAlpha"/>
<feOffset dx="0.684804" dy="1.36961"/>
<feGaussianBlur stdDeviation="3.42402"/>
<feComposite in2="hardAlpha" operator="out"/>
<feColorMatrix type="matrix" values="0 0 0 0 0.47451 0 0 0 0 0.47451 0 0 0 0 0.47451 0 0 0 0.26 0"/>
<feBlend mode="normal" in2="BackgroundImageFix" result="effect1_dropShadow_3244_60749"/>
<feBlend mode="normal" in="SourceGraphic" in2="effect1_dropShadow_3244_60749" result="shape"/>
</filter>
<clipPath id="clip0_3244_60749">
<rect x="64.1055" y="58.5391" width="21" height="21" fill="white"/>
</clipPath>
</defs>
</svg>
