<svg width="27" height="27" viewBox="0 0 27 27" fill="none" xmlns="http://www.w3.org/2000/svg">
<path d="M24.0787 7.57148H24.0682C23.9385 7.34499 23.7487 7.15881 23.5197 7.03359L14.2385 1.79179C14.0162 1.66707 13.7656 1.60156 13.5107 1.60156C13.2559 1.60156 13.0053 1.66707 12.783 1.79179L3.50176 7.0125C3.2909 7.13211 3.11326 7.3025 2.98496 7.5082L2.95332 7.55039H2.94277C2.82113 7.77387 2.75595 8.02369 2.75293 8.27812V18.6773C2.75259 18.9389 2.82174 19.1959 2.95331 19.422C3.08488 19.6481 3.27415 19.8351 3.50176 19.9641L12.783 25.1848C12.9812 25.2939 13.2007 25.3587 13.4264 25.3746H13.6057C13.8277 25.3572 14.0435 25.2925 14.2385 25.1848L23.5197 19.9641C23.7473 19.8351 23.9366 19.6481 24.0682 19.422C24.1997 19.1959 24.2689 18.9389 24.2686 18.6773V8.29921C24.2722 8.04394 24.2066 7.79246 24.0787 7.57148ZM13.4053 2.88867L13.5107 2.86757L13.6162 2.88867L22.349 7.80351L18.6893 9.88124L9.74551 4.94531L13.4053 2.88867ZM13.6057 12.7711L4.68301 7.80351L8.44824 5.68359L17.4025 10.6195L13.6057 12.7711ZM4.12402 18.8883C4.09229 18.8676 4.06609 18.8395 4.04771 18.8065C4.02933 18.7734 4.01932 18.7363 4.01856 18.6984V8.87929L12.9729 13.868L12.8885 23.8137L4.12402 18.8883ZM22.8975 18.8883L14.1541 23.8031L14.2385 13.868L18.0459 11.7059V16.0828C18.0459 16.2506 18.1126 16.4116 18.2312 16.5303C18.3499 16.649 18.5109 16.7156 18.6787 16.7156C18.8465 16.7156 19.0075 16.649 19.1262 16.5303C19.2449 16.4116 19.3115 16.2506 19.3115 16.0828V10.9887L23.0029 8.88984V18.6984C23.0022 18.7363 22.9922 18.7734 22.9738 18.8065C22.9554 18.8395 22.9292 18.8676 22.8975 18.8883Z" fill="#1F3F7F"/>
<path fill-rule="evenodd" clip-rule="evenodd" d="M5.02051 16.1914C5.02051 15.2963 5.37609 14.4379 6.00902 13.8049C6.64196 13.172 7.5004 12.8164 8.39551 12.8164C9.29061 12.8164 10.1491 13.172 10.782 13.8049C11.4149 14.4379 11.7705 15.2963 11.7705 16.1914C11.7705 17.0865 11.4149 17.945 10.782 18.5779C10.1491 19.2108 9.29061 19.5664 8.39551 19.5664C7.5004 19.5664 6.64196 19.2108 6.00902 18.5779C5.37609 17.945 5.02051 17.0865 5.02051 16.1914ZM8.20291 17.6359L10.146 15.2068L9.79501 14.926L8.13811 16.9965L6.96451 16.0186L6.67651 16.3642L8.20291 17.6364V17.6359Z" fill="#008000"/>
<path d="M8.20291 17.6359L10.146 15.2068L9.79501 14.926L8.13811 16.9965L6.96451 16.0186L6.67651 16.3642L8.20291 17.6364V17.6359Z" fill="white"/>
</svg>
