<svg width="33" height="33" viewBox="0 0 33 33" fill="none" xmlns="http://www.w3.org/2000/svg">
<path d="M16.842 20.7274L20.422 24.3174L16.832 27.9074L18.252 29.3174L23.252 24.3174L18.252 19.3174L16.842 20.7274ZM23.842 20.7274L27.422 24.3174L23.832 27.9074L25.252 29.3174L30.252 24.3174L25.252 19.3174L23.842 20.7274Z" fill="#1F3F7F"/>
<path d="M14.2539 23.3174H4.25391V8.22738L15.6839 16.1374C15.8513 16.2535 16.0502 16.3157 16.2539 16.3157C16.4576 16.3157 16.6565 16.2535 16.8239 16.1374L28.2539 8.22738V17.3174H30.2539V7.31738C30.2539 6.78695 30.0432 6.27824 29.6681 5.90317C29.293 5.5281 28.7843 5.31738 28.2539 5.31738H4.25391C3.72347 5.31738 3.21477 5.5281 2.83969 5.90317C2.46462 6.27824 2.25391 6.78695 2.25391 7.31738V23.3174C2.25391 23.8478 2.46462 24.3565 2.83969 24.7316C3.21477 25.1067 3.72347 25.3174 4.25391 25.3174H14.2539V23.3174ZM26.0539 7.31738L16.2539 14.0974L6.45391 7.31738H26.0539Z" fill="#1F3F7F"/>
</svg>
