<svg width="41" height="40" viewBox="0 0 41 40" fill="none" xmlns="http://www.w3.org/2000/svg">
<g id="Package">
<path id="Vector" d="M35.8481 11.529H35.8328C35.6447 11.2004 35.3693 10.9303 35.0371 10.7486L21.5708 3.14319C21.2483 2.96223 20.8847 2.86719 20.5149 2.86719C20.1451 2.86719 19.7815 2.96223 19.459 3.14319L5.99274 10.718C5.6868 10.8915 5.42905 11.1388 5.24291 11.4372L5.197 11.4984H5.1817C5.0052 11.8227 4.91064 12.1851 4.90625 12.5543V27.6427C4.90575 28.0222 5.00608 28.3951 5.19699 28.7231C5.38789 29.0511 5.6625 29.3225 5.99274 29.5096L19.459 37.0844C19.7465 37.2427 20.0651 37.3367 20.3925 37.3598H20.6526C20.9748 37.3346 21.2879 37.2406 21.5708 37.0844L35.0371 29.5096C35.3673 29.3225 35.6419 29.0511 35.8328 28.7231C36.0237 28.3951 36.1241 28.0222 36.1236 27.6427V12.5849C36.1288 12.2145 36.0336 11.8496 35.8481 11.529ZM20.3619 4.73467L20.5149 4.70406L20.6679 4.73467L33.3385 11.8657L28.0285 14.8803L15.0519 7.71867L20.3619 4.73467ZM20.6526 19.0732L7.70663 11.8657L13.1697 8.78986L26.1616 15.9515L20.6526 19.0732ZM6.89559 27.9487C6.84955 27.9188 6.81154 27.878 6.78486 27.83C6.75819 27.782 6.74367 27.7282 6.74256 27.6733V13.4265L19.7345 20.6647L19.6121 35.095L6.89559 27.9487ZM34.1342 27.9487L21.4484 35.0797L21.5708 20.6647L27.095 17.5276V23.8782C27.095 24.1217 27.1918 24.3553 27.364 24.5275C27.5361 24.6996 27.7697 24.7964 28.0132 24.7964C28.2567 24.7964 28.4902 24.6996 28.6624 24.5275C28.8346 24.3553 28.9313 24.1217 28.9313 23.8782V16.4871L34.2873 13.4418V27.6733C34.2861 27.7282 34.2716 27.782 34.245 27.83C34.2183 27.878 34.1803 27.9188 34.1342 27.9487Z" fill="#1F3F7F"/>
</g>
</svg>
