<svg width="26" height="27" viewBox="0 0 26 27" fill="none" xmlns="http://www.w3.org/2000/svg">
<g clip-path="url(#clip0_2041_29110)">
<path d="M17.9995 0.6885C13.6845 0.6885 10.1865 2.6175 10.1865 5.0005C10.1865 7.3835 13.6855 9.3135 17.9995 9.3135C22.3145 9.3135 25.8125 7.3835 25.8125 5.0005C25.8125 2.6175 22.3135 0.6885 17.9995 0.6885ZM25.8125 6.2815C25.8105 8.6645 22.3145 10.5945 17.9995 10.5945C13.6965 10.5945 10.2065 8.6855 10.1865 6.3135V8.0005C10.1865 9.0185 10.8385 9.9505 11.9065 10.6885C12.9865 10.9825 13.9485 11.3905 14.7495 11.9065C15.7425 12.1585 16.8345 12.3125 17.9995 12.3125C22.3145 12.3125 25.8125 10.3835 25.8125 8.0005V6.2815ZM25.8125 9.2815C25.8125 11.6645 22.3145 13.5945 17.9995 13.5945C17.4745 13.5945 16.9645 13.5555 16.4685 13.5005C16.8599 14.0276 17.1269 14.6365 17.2495 15.2815C17.4985 15.2955 17.7445 15.3125 17.9995 15.3125C22.3145 15.3125 25.8125 13.3835 25.8125 11.0005V9.2815ZM7.99952 11.6875C3.68452 11.6875 0.186523 13.6175 0.186523 16.0005C0.186523 18.3835 3.68552 20.3135 7.99952 20.3135C12.3145 20.3135 15.8125 18.3835 15.8125 16.0005C15.8125 13.6175 12.3135 11.6875 7.99952 11.6875ZM25.8125 12.2815C25.8105 14.6645 22.3145 16.5945 17.9995 16.5945C17.7485 16.5945 17.4945 16.5765 17.2495 16.5625C17.2385 16.6375 17.2325 16.7375 17.2185 16.8125C17.2685 16.9635 17.3115 17.1125 17.3115 17.2825V18.2825C17.5385 18.2935 17.7665 18.3125 17.9995 18.3125C22.3145 18.3125 25.8125 16.3835 25.8125 14.0005V12.2815ZM25.8125 15.2815C25.8105 17.6645 22.3145 19.5945 17.9995 19.5945C17.7485 19.5945 17.4945 19.5765 17.2495 19.5625C17.2385 19.6375 17.2325 19.7375 17.2185 19.8125C17.2685 19.9625 17.3115 20.1125 17.3115 20.2825V21.2825C17.5385 21.2935 17.7665 21.3125 17.9995 21.3125C22.3145 21.3125 25.8125 19.3835 25.8125 17.0005V15.2815ZM15.8125 17.2815C15.8105 19.6645 12.3145 21.5945 7.99952 21.5945C3.69652 21.5945 0.206523 19.6855 0.186523 17.3125V19.0005C0.186523 21.3835 3.68352 23.3135 7.99952 23.3135C12.3155 23.3135 15.8125 21.3835 15.8125 19.0005V17.2815ZM15.8125 20.2815C15.8105 22.6645 12.3145 24.5945 7.99952 24.5945C3.69652 24.5945 0.206523 22.6855 0.186523 20.3125V22.0005C0.186523 24.3835 3.68352 26.3135 7.99952 26.3135C12.3155 26.3135 15.8125 24.3835 15.8125 22.0005V20.2815Z" fill="#1F3F7F"/>
</g>
<defs>
<clipPath id="clip0_2041_29110">
<rect width="26" height="26" fill="white" transform="translate(0 0.5)"/>
</clipPath>
</defs>
</svg>
