<svg width="15" height="15" viewBox="0 0 15 15" fill="none" xmlns="http://www.w3.org/2000/svg">
<path d="M1.57254 0.862314L14.4178 7.19166C14.4878 7.22618 14.5468 7.27961 14.5881 7.34592C14.6293 7.41223 14.6512 7.48876 14.6512 7.56685C14.6512 7.64494 14.6293 7.72147 14.5881 7.78778C14.5468 7.85409 14.4878 7.90753 14.4178 7.94204L1.5717 14.2714C1.49974 14.3067 1.41912 14.3207 1.33947 14.3115C1.25981 14.3023 1.18447 14.2705 1.12241 14.2197C1.06035 14.1689 1.0142 14.1014 0.989442 14.0251C0.964684 13.9488 0.962369 13.8671 0.982771 13.7895L2.25517 8.98355C2.27579 8.90578 2.31841 8.83561 2.37791 8.78146C2.43741 8.7273 2.51126 8.69145 2.59062 8.67821L8.34693 7.71868C8.38123 7.713 8.41357 7.69886 8.44103 7.67754C8.46849 7.65621 8.4902 7.62837 8.5042 7.59655L8.51926 7.54636C8.52707 7.49983 8.51892 7.45204 8.49614 7.41073C8.47336 7.36942 8.43729 7.33703 8.39378 7.31881L8.34693 7.30543L2.55883 6.34089C2.47963 6.3275 2.40595 6.29158 2.34661 6.23743C2.28727 6.18329 2.24478 6.1132 2.22421 6.03554L0.982771 1.345C0.962157 1.2674 0.964312 1.18551 0.98898 1.10911C1.01365 1.0327 1.05978 0.965005 1.12188 0.91411C1.18398 0.863214 1.25941 0.831266 1.33918 0.822082C1.41894 0.812897 1.49966 0.826864 1.5717 0.862314H1.57254Z" fill="white"/>
</svg>
