<svg width="108" height="102" viewBox="0 0 108 102" fill="none" xmlns="http://www.w3.org/2000/svg">
<g filter="url(#filter0_d_3102_1261)">
<rect x="7.05469" y="5.91309" width="93.1334" height="87.0472" rx="5.47844" fill="white" shape-rendering="crispEdges"/>
<path d="M69.2547 24.6207C65.3732 20.8527 61.1891 17.8325 57.7527 17.4186C57.559 17.3897 57.3633 17.3748 57.1674 17.3741H34.5663C34.386 17.3726 34.2072 17.4073 34.0405 17.4761C33.8739 17.5449 33.7227 17.6464 33.5959 17.7747C33.3406 18.0333 33.1967 18.3816 33.1953 18.745V76.0546C33.1953 76.2346 33.2308 76.4127 33.2997 76.5789C33.3686 76.7451 33.4697 76.8961 33.597 77.0233C33.7243 77.1504 33.8755 77.2512 34.0418 77.3198C34.2081 77.3885 34.3864 77.4237 34.5663 77.4234H75.4375C75.617 77.4238 75.7948 77.3886 75.9605 77.3198C76.1263 77.251 76.2769 77.1501 76.4034 77.0228C76.5315 76.8961 76.6332 76.7454 76.7027 76.5792C76.7723 76.413 76.8082 76.2347 76.8084 76.0546V37.9187C76.7283 33.4897 73.2608 28.6646 69.2547 24.6207ZM67.3251 26.5614C69.1167 28.3107 70.7303 30.2915 71.9321 32.2011C70.9029 31.8057 69.8468 31.4844 68.7718 31.2396C66.8471 30.8238 64.8931 30.5581 62.9273 30.4451C62.9362 30.1513 62.9384 29.8175 62.9384 29.4547C62.9384 27.5184 62.816 24.7631 62.1461 22.3327L62.1238 22.266C64.0017 23.5137 65.7448 24.9533 67.3251 26.5614ZM74.062 74.6792H35.9328V20.1049H57.1696V20.1116C58.0955 20.0559 58.8945 20.9707 59.5065 23.0627C60.0629 25.0547 60.2031 27.652 60.2009 29.4503C60.2054 30.7723 60.1408 31.6581 60.1408 31.6581L60.0295 33.1092L61.4895 33.1247C61.4962 33.1247 64.8636 33.1648 68.1664 33.9148C71.3401 34.6003 73.8195 35.9669 74.0531 37.5137C74.0643 37.6516 74.0665 37.7896 74.0643 37.9187V74.6725L74.062 74.6792Z" fill="#393939"/>
<path d="M48.7459 36.796H17.9297V25.1543H48.7459V36.796Z" fill="#9F2E86"/>
<g clip-path="url(#clip0_3102_1261)" filter="url(#filter1_d_3102_1261)">
<rect width="21.0682" height="21.0682" transform="translate(63.7109 63.0205) rotate(-23)" fill="white"/>
<path d="M67.1937 63.8895L85.1971 64.9059C85.2952 64.9114 85.3899 64.9443 85.4703 65.0009C85.5508 65.0575 85.6138 65.1354 85.6522 65.2259C85.6906 65.3164 85.7029 65.4159 85.6877 65.5131C85.6726 65.6102 85.6305 65.7012 85.5663 65.7756L73.7902 79.4327C73.7242 79.5091 73.6376 79.5649 73.5408 79.5934C73.4439 79.622 73.3409 79.6221 73.244 79.5938C73.1471 79.5655 73.0604 79.5099 72.9941 79.4337C72.9279 79.3575 72.885 79.2638 72.8705 79.1639L71.9807 72.9671C71.9664 72.8668 71.9812 72.7645 72.0236 72.6725C72.0659 72.5804 72.1339 72.5025 72.2193 72.4481L78.4195 68.5037C78.4565 68.4803 78.487 68.448 78.5083 68.4097C78.5297 68.3715 78.5411 68.3285 78.5417 68.2848L78.5345 68.2192C78.5206 68.1614 78.4877 68.11 78.4409 68.0733C78.3942 68.0367 78.3365 68.0169 78.2771 68.0172L78.2162 68.0247L71.0325 69.7545C70.9341 69.778 70.831 69.7726 70.7356 69.739C70.6402 69.7055 70.5564 69.6451 70.4944 69.5652L66.7475 64.7391C66.6855 64.6593 66.6477 64.5633 66.6387 64.4626C66.6297 64.3619 66.6498 64.2608 66.6968 64.1712C66.7437 64.0817 66.8154 64.0075 66.9034 63.9576C66.9913 63.9078 67.0918 63.8842 67.1927 63.8899L67.1937 63.8895Z" fill="#9F2E86"/>
</g>
<path d="M26.7478 31.8328H28.1637C28.1448 32.2427 28.0343 32.6041 27.832 32.9169C27.6297 33.2298 27.3493 33.4739 26.9906 33.6492C26.6346 33.8218 26.2138 33.9081 25.7284 33.9081C25.3346 33.9081 24.9827 33.842 24.6726 33.7098C24.3651 33.5777 24.1035 33.3875 23.8877 33.1394C23.6747 32.8913 23.5115 32.5906 23.3983 32.2373C23.2877 31.884 23.2324 31.4862 23.2324 31.0439V30.7243C23.2324 30.282 23.2904 29.8842 23.4063 29.5309C23.525 29.175 23.6922 28.8729 23.908 28.6248C24.1264 28.374 24.388 28.1825 24.6928 28.0503C24.9975 27.9182 25.336 27.8521 25.7082 27.8521C26.2206 27.8521 26.6534 27.9438 27.0067 28.1272C27.36 28.3106 27.6338 28.5627 27.828 28.8837C28.0221 29.2019 28.1368 29.5647 28.1718 29.9719H26.7559C26.7505 29.7507 26.7128 29.566 26.6427 29.4177C26.5725 29.2666 26.462 29.1534 26.3109 29.0779C26.1599 29.0023 25.959 28.9646 25.7082 28.9646C25.5329 28.9646 25.3805 28.997 25.251 29.0617C25.1216 29.1264 25.0137 29.2289 24.9274 29.3691C24.8411 29.5094 24.7764 29.6914 24.7332 29.9153C24.6928 30.1364 24.6726 30.4034 24.6726 30.7162V31.0439C24.6726 31.3568 24.6914 31.6238 24.7292 31.8449C24.7669 32.0661 24.8276 32.2467 24.9112 32.387C24.9948 32.5272 25.1027 32.6311 25.2349 32.6985C25.3697 32.7632 25.5342 32.7956 25.7284 32.7956C25.9442 32.7956 26.1262 32.7619 26.2745 32.6944C26.4229 32.6243 26.5375 32.5191 26.6184 32.3789C26.6993 32.236 26.7424 32.0539 26.7478 31.8328ZM31.2382 31.3231H29.7212L29.7131 30.3926H30.9429C31.1641 30.3926 31.3407 30.3683 31.4729 30.3198C31.605 30.2686 31.7007 30.1944 31.7601 30.0973C31.8221 30.0002 31.8531 29.8788 31.8531 29.7332C31.8531 29.566 31.8221 29.4312 31.7601 29.3287C31.698 29.2262 31.5996 29.152 31.4648 29.1062C31.3326 29.0576 31.1614 29.0334 30.951 29.0334H30.2552V33.8271H28.8353V27.9371H30.951C31.3151 27.9371 31.6401 27.9708 31.9259 28.0382C32.2118 28.1029 32.4545 28.2027 32.6541 28.3376C32.8564 28.4724 33.0101 28.6423 33.1153 28.8473C33.2205 29.0495 33.2731 29.2882 33.2731 29.5633C33.2731 29.8033 33.2218 30.0285 33.1193 30.2389C33.0168 30.4492 32.8456 30.6205 32.6056 30.7527C32.3682 30.8821 32.0433 30.9495 31.6306 30.9549L31.2382 31.3231ZM31.1816 33.8271H29.3773L29.8628 32.7349H31.1816C31.3758 32.7349 31.5308 32.7052 31.6468 32.6459C31.7655 32.5839 31.8504 32.503 31.9017 32.4032C31.9556 32.3007 31.9826 32.1874 31.9826 32.0634C31.9826 31.9123 31.957 31.7815 31.9057 31.671C31.8572 31.5604 31.779 31.4754 31.6711 31.4161C31.5632 31.3541 31.4189 31.3231 31.2382 31.3231H30.0448L30.0529 30.3926H31.4809L31.8127 30.7648C32.2064 30.7486 32.5179 30.8039 32.7472 30.9306C32.9791 31.0574 33.1449 31.2246 33.2447 31.4323C33.3445 31.6399 33.3944 31.857 33.3944 32.0836C33.3944 32.4692 33.3108 32.7915 33.1436 33.0504C32.9791 33.3093 32.7323 33.5035 32.4033 33.633C32.0743 33.7624 31.667 33.8271 31.1816 33.8271ZM37.5328 31.8328H38.9487C38.9299 32.2427 38.8193 32.6041 38.617 32.9169C38.4147 33.2298 38.1343 33.4739 37.7756 33.6492C37.4196 33.8218 36.9989 33.9081 36.5134 33.9081C36.1197 33.9081 35.7677 33.842 35.4576 33.7098C35.1501 33.5777 34.8885 33.3875 34.6728 33.1394C34.4597 32.8913 34.2965 32.5906 34.1833 32.2373C34.0727 31.884 34.0174 31.4862 34.0174 31.0439V30.7243C34.0174 30.282 34.0754 29.8842 34.1914 29.5309C34.31 29.175 34.4772 28.8729 34.693 28.6248C34.9114 28.374 35.173 28.1825 35.4778 28.0503C35.7825 27.9182 36.121 27.8521 36.4932 27.8521C37.0056 27.8521 37.4385 27.9438 37.7918 28.1272C38.145 28.3106 38.4188 28.5627 38.613 28.8837C38.8071 29.2019 38.9218 29.5647 38.9568 29.9719H37.5409C37.5355 29.7507 37.4978 29.566 37.4277 29.4177C37.3575 29.2666 37.247 29.1534 37.0959 29.0779C36.9449 29.0023 36.744 28.9646 36.4932 28.9646C36.3179 28.9646 36.1655 28.997 36.0361 29.0617C35.9066 29.1264 35.7987 29.2289 35.7124 29.3691C35.6261 29.5094 35.5614 29.6914 35.5182 29.9153C35.4778 30.1364 35.4576 30.4034 35.4576 30.7162V31.0439C35.4576 31.3568 35.4764 31.6238 35.5142 31.8449C35.552 32.0661 35.6126 32.2467 35.6962 32.387C35.7798 32.5272 35.8877 32.6311 36.0199 32.6985C36.1547 32.7632 36.3192 32.7956 36.5134 32.7956C36.7292 32.7956 36.9112 32.7619 37.0595 32.6944C37.2079 32.6243 37.3225 32.5191 37.4034 32.3789C37.4843 32.236 37.5275 32.0539 37.5328 31.8328ZM42.3509 27.9371V33.8271H40.931V27.9371H42.3509ZM44.1228 27.9371V29.0334H39.1995V27.9371H44.1228Z" fill="white"/>
<path d="M43.3477 42.127H65.9462" stroke="#333333" stroke-width="1.36961" stroke-linecap="round"/>
<path d="M43.3477 48.29H65.9462" stroke="#333333" stroke-width="1.36961" stroke-linecap="round"/>
<path d="M43.3477 54.4531H65.9462" stroke="#333333" stroke-width="1.36961" stroke-linecap="round"/>
<path d="M43.3477 60.6162H65.9462" stroke="#333333" stroke-width="1.36961" stroke-linecap="round"/>
</g>
<defs>
<filter id="filter0_d_3102_1261" x="0.891448" y="0.434651" width="106.829" height="100.743" filterUnits="userSpaceOnUse" color-interpolation-filters="sRGB">
<feFlood flood-opacity="0" result="BackgroundImageFix"/>
<feColorMatrix in="SourceAlpha" type="matrix" values="0 0 0 0 0 0 0 0 0 0 0 0 0 0 0 0 0 0 127 0" result="hardAlpha"/>
<feOffset dx="0.684804" dy="1.36961"/>
<feGaussianBlur stdDeviation="3.42402"/>
<feComposite in2="hardAlpha" operator="out"/>
<feColorMatrix type="matrix" values="0 0 0 0 0.47451 0 0 0 0 0.47451 0 0 0 0 0.47451 0 0 0 0.26 0"/>
<feBlend mode="normal" in2="BackgroundImageFix" result="effect1_dropShadow_3102_1261"/>
<feBlend mode="normal" in="SourceGraphic" in2="effect1_dropShadow_3102_1261" result="shape"/>
</filter>
<filter id="filter1_d_3102_1261" x="59.4973" y="54.7881" width="36.0523" height="36.0532" filterUnits="userSpaceOnUse" color-interpolation-filters="sRGB">
<feFlood flood-opacity="0" result="BackgroundImageFix"/>
<feColorMatrix in="SourceAlpha" type="matrix" values="0 0 0 0 0 0 0 0 0 0 0 0 0 0 0 0 0 0 127 0" result="hardAlpha"/>
<feOffset dy="4.21363"/>
<feGaussianBlur stdDeviation="2.10682"/>
<feComposite in2="hardAlpha" operator="out"/>
<feColorMatrix type="matrix" values="0 0 0 0 0 0 0 0 0 0 0 0 0 0 0 0 0 0 0.25 0"/>
<feBlend mode="normal" in2="BackgroundImageFix" result="effect1_dropShadow_3102_1261"/>
<feBlend mode="normal" in="SourceGraphic" in2="effect1_dropShadow_3102_1261" result="shape"/>
</filter>
<clipPath id="clip0_3102_1261">
<rect width="21.0682" height="21.0682" fill="white" transform="translate(63.7109 63.0205) rotate(-23)"/>
</clipPath>
</defs>
</svg>
