<svg width="57" height="49" viewBox="0 0 57 49" fill="none" xmlns="http://www.w3.org/2000/svg">
<g id="Frame 2404">
<g id="Group 332">
<path id="Vector" d="M47.7343 13.1583H47.7134C47.4566 12.7097 47.0806 12.3409 46.627 12.0928L28.241 1.70887C27.8007 1.4618 27.3042 1.33203 26.7993 1.33203C26.2944 1.33203 25.798 1.4618 25.3577 1.70887L6.9717 12.051C6.55399 12.288 6.20208 12.6255 5.94793 13.033L5.88525 13.1166H5.86436C5.62338 13.5593 5.49427 14.0542 5.48828 14.5582V35.1589C5.4876 35.6771 5.62459 36.1861 5.88523 36.634C6.14588 37.0819 6.52082 37.4525 6.9717 37.7079L25.3577 48.05C25.7503 48.2662 26.1851 48.3945 26.6322 48.4261H26.9874C27.4273 48.3916 27.8547 48.2634 28.241 48.05L46.627 37.7079C47.0779 37.4525 47.4528 37.0819 47.7135 36.634C47.9741 36.1861 48.1111 35.6771 48.1104 35.1589V14.6C48.1176 14.0943 47.9876 13.5961 47.7343 13.1583ZM26.5904 3.88177L26.7993 3.83998L27.0083 3.88177L44.3078 13.618L37.0579 17.734L19.3405 7.95594L26.5904 3.88177ZM26.9874 23.4587L9.31174 13.618L16.7706 9.41846L34.5089 19.1965L26.9874 23.4587ZM8.2044 35.5767C8.14154 35.5359 8.08964 35.4802 8.05322 35.4147C8.0168 35.3491 7.99697 35.2756 7.99547 35.2007V15.7491L25.7338 25.6316L25.5666 45.3339L8.2044 35.5767ZM45.3943 35.5767L28.0738 45.313L28.241 25.6316L35.7834 21.3485V30.0192C35.7834 30.3516 35.9155 30.6705 36.1506 30.9056C36.3857 31.1407 36.7045 31.2727 37.037 31.2727C37.3695 31.2727 37.6883 31.1407 37.9234 30.9056C38.1585 30.6705 38.2906 30.3516 38.2906 30.0192V19.9277L45.6032 15.77V35.2007C45.6017 35.2756 45.5819 35.3491 45.5455 35.4147C45.5091 35.4802 45.4571 35.5359 45.3943 35.5767Z" fill="#333333"/>
<path id="Vector_2" d="M47.4664 30.0189C47.467 30.0185 47.4676 30.0182 47.4682 30.0178L47.6713 30.3579L48.1037 29.762L48.1245 29.7771L47.4664 30.0189ZM47.4664 30.0189C47.3906 30.0642 47.3203 30.108 47.2561 30.1493L47.4664 30.0189ZM47.3074 29.1679C47.7297 28.9337 48.2629 28.6831 48.8617 28.5028C50.3215 28.0633 52.4496 27.9905 54.1036 29.908L47.3074 29.1679ZM47.3074 29.1679C46.2712 28.4943 45.1648 28.1357 44.0161 28.2294C42.5284 28.3507 41.3169 29.2021 40.3799 30.3397L40.3799 30.3397C39.3536 31.5857 39.3039 33.1787 39.4534 34.4324C39.6041 35.6967 40.0066 36.989 40.3053 37.948C40.3109 37.9659 40.3164 37.9837 40.3219 38.0013L40.3222 38.0021C40.4736 38.4874 40.5912 38.8679 40.6657 39.1709L47.3074 29.1679ZM43.0413 43.8059L43.0411 43.8058C41.646 42.6315 41.125 41.0396 40.6658 39.1712L43.0413 43.8059ZM43.0413 43.8059C43.4729 44.1691 44.03 44.3479 44.6173 44.257M43.0413 43.8059L44.6173 44.257M44.6173 44.257C45.1205 44.1791 45.499 43.925 45.728 43.7415M44.6173 44.257L45.728 43.7415M45.728 43.7415C46.1428 43.4092 46.5246 42.921 46.7796 42.5949M45.728 43.7415L46.7796 42.5949M46.7796 42.5949C46.7955 42.5745 46.811 42.5548 46.8259 42.5357L46.7796 42.5949ZM53.4581 40.3228L55.0554 35.7469L55.063 35.7251L55.0699 35.7031C55.3287 34.8812 55.5285 33.9291 55.4304 32.9168C55.3291 31.8711 54.9187 30.8527 54.1038 29.9082L53.4581 40.3228ZM47.6449 30.4381L47.6838 30.3845L47.6449 30.4381ZM46.826 42.5356C46.9776 42.3423 47.1041 42.1826 47.2156 42.0511L46.826 42.5356Z" fill="#1F3F7F" stroke="white" stroke-width="3"/>
</g>
</g>
</svg>
