<svg width="44" height="44" viewBox="0 0 44 44" fill="none" xmlns="http://www.w3.org/2000/svg">
<path d="M11.627 13.026C11.2946 12.6929 11.108 12.2416 11.108 11.771C11.108 11.3004 11.2946 10.8491 11.627 10.516L20.9561 1.18643C21.293 0.852728 21.748 0.665527 22.2222 0.665527C22.6964 0.665527 23.1514 0.852728 23.4883 1.18643L32.8174 10.516C33.1498 10.8491 33.3364 11.3004 33.3364 11.771C33.3364 12.2416 33.1498 12.6929 32.8174 13.026C32.6521 13.194 32.455 13.3273 32.2376 13.4183C32.0203 13.5093 31.787 13.5562 31.5513 13.5562C31.3157 13.5562 31.0824 13.5093 30.865 13.4183C30.6477 13.3273 30.4506 13.194 30.2852 13.026L23.9992 6.73972V27.3313C23.9992 27.8026 23.812 28.2546 23.4787 28.5879C23.1455 28.9212 22.6935 29.1084 22.2222 29.1084C21.7509 29.1084 21.2989 28.9212 20.9657 28.5879C20.6324 28.2546 20.4452 27.8026 20.4452 27.3313V6.73972L14.1592 13.026C13.9938 13.194 13.7967 13.3273 13.5794 13.4183C13.362 13.5093 13.1287 13.5562 12.8931 13.5562C12.6574 13.5562 12.4241 13.5093 12.2068 13.4183C11.9894 13.3273 11.7923 13.194 11.627 13.026ZM41.769 25.5543C41.2977 25.5543 40.8457 25.7415 40.5125 26.0748C40.1792 26.408 39.992 26.86 39.992 27.3313V39.7707H4.4524V27.3313C4.4524 26.86 4.26518 26.408 3.93193 26.0748C3.59868 25.7415 3.1467 25.5543 2.67542 25.5543C2.20413 25.5543 1.75215 25.7415 1.4189 26.0748C1.08565 26.408 0.898438 26.86 0.898438 27.3313V39.7707C0.898438 40.7133 1.27287 41.6173 1.93937 42.2838C2.60587 42.9504 3.50983 43.3248 4.4524 43.3248H39.992C40.9346 43.3248 41.8385 42.9504 42.505 42.2838C43.1715 41.6173 43.546 40.7133 43.546 39.7707V27.3313C43.546 26.86 43.3587 26.408 43.0255 26.0748C42.6922 25.7415 42.2403 25.5543 41.769 25.5543Z" fill="#333333" fill-opacity="0.6"/>
</svg>
