<svg width="23" height="23" viewBox="0 0 23 23" fill="none" xmlns="http://www.w3.org/2000/svg">
<path d="M11.3822 0.105469C14.3216 0.105469 17.1407 1.27317 19.2193 3.3517C21.2978 5.43023 22.4655 8.24932 22.4655 11.1888C22.4655 14.1283 21.2978 16.9474 19.2193 19.0259C17.1407 21.1044 14.3216 22.2721 11.3822 22.2721C8.44268 22.2721 5.62359 21.1044 3.54506 19.0259C1.46653 16.9474 0.298828 14.1283 0.298828 11.1888C0.298828 8.24932 1.46653 5.43023 3.54506 3.3517C5.62359 1.27317 8.44268 0.105469 11.3822 0.105469ZM11.3822 1.27214C8.7521 1.27214 6.22975 2.31692 4.37002 4.17666C2.51028 6.0364 1.46549 8.55874 1.46549 11.1888C1.46549 13.8189 2.51028 16.3412 4.37002 18.2009C6.22975 20.0607 8.7521 21.1055 11.3822 21.1055C12.6844 21.1055 13.974 20.849 15.1771 20.3506C16.3803 19.8522 17.4735 19.1218 18.3943 18.2009C19.3152 17.2801 20.0456 16.1869 20.544 14.9837C21.0423 13.7806 21.2988 12.4911 21.2988 11.1888C21.2988 8.55874 20.254 6.0364 18.3943 4.17666C16.5346 2.31692 14.0122 1.27214 11.3822 1.27214ZM10.7988 5.9388V8.27213H11.9655V5.9388H10.7988ZM10.7988 10.6055V16.4388H11.9655V10.6055H10.7988Z" fill="#DFB10A"/>
</svg>
